<svg width="32" height="32" viewBox="0 0 32 32" fill="none" xmlns="http://www.w3.org/2000/svg">

    <!-- logo -->
    <symbol id="mobiquity-clean">
        <path d="M48.062 6.1714C47.4909 5.59331 46.8028 5.14398 46.0439 4.85356C45.1286 4.49669 44.1504 4.32945 43.1686 4.36203C42.3263 4.38006 41.494 4.54863 40.7111 4.8597C40.5688 4.92286 40.4417 5.01574 40.3384 5.13209C40.235 5.24845 40.1577 5.38552 40.1117 5.53422C40.0657 5.68293 40.0522 5.83978 40.0718 5.99418C40.0915 6.14858 40.1439 6.29696 40.2257 6.42938C40.5083 7.01611 41.1811 6.94854 41.6265 6.82259C42.1257 6.66436 42.6408 6.56135 43.1624 6.51541C43.7926 6.46809 44.4248 6.57347 45.0055 6.82259C45.4895 7.01135 45.9281 7.30028 46.2926 7.67043C46.6303 8.02177 46.89 8.4405 47.0545 8.89917C47.2232 9.36174 47.3085 9.85056 47.3064 10.3429C47.3082 10.8383 47.223 11.3301 47.0545 11.7959C46.8943 12.2546 46.6376 12.6735 46.3019 13.0247C45.9383 13.3915 45.5005 13.6764 45.0178 13.8602C43.824 14.2745 42.5254 14.2745 41.3316 13.8602C40.8476 13.6772 40.4087 13.3922 40.0445 13.0247C39.7088 12.6735 39.4522 12.2545 39.2919 11.7959C39.1219 11.3262 39.0366 10.8301 39.04 10.3306V1.11505C39.0376 0.823314 38.9207 0.54423 38.7144 0.337935C38.5081 0.13164 38.2289 0.0147073 37.9372 0.0122994H37.8082C37.5178 0.00762702 37.2372 0.11806 37.0279 0.319486C36.9252 0.422879 36.8449 0.546331 36.7921 0.682169C36.7392 0.818007 36.7149 0.963333 36.7207 1.10897V10.4536C36.7298 11.1865 36.8595 11.913 37.1047 12.6039C37.355 13.3168 37.7575 13.9667 38.2844 14.5084C38.8581 15.0803 39.5457 15.5251 40.3025 15.8139C42.1749 16.4693 44.2144 16.4693 46.0868 15.8139C46.8441 15.5219 47.5309 15.0728 48.102 14.4961C48.634 13.9574 49.0408 13.3082 49.2939 12.5946C49.816 11.1305 49.816 9.53085 49.2939 8.06671C49.0366 7.35155 48.6304 6.69922 48.102 6.15295L48.062 6.1714ZM66.8619 11.7683C66.7023 12.2272 66.4455 12.6464 66.1092 12.9971C65.7452 13.3656 65.3063 13.6516 64.8221 13.8357C63.6284 14.2507 62.3296 14.2507 61.1359 13.8357C60.6517 13.6516 60.2128 13.3656 59.8488 12.9971C59.5125 12.6464 59.2558 12.2272 59.0962 11.7683C58.7603 10.8288 58.7603 9.80189 59.0962 8.86235C59.26 8.40331 59.5197 7.98443 59.858 7.6336C60.2225 7.26346 60.6611 6.97453 61.1451 6.78577C62.3381 6.3666 63.6384 6.3666 64.8314 6.78577C65.3159 6.97344 65.7547 7.26251 66.1184 7.6336C66.4568 7.98443 66.7165 8.40331 66.8803 8.86235C67.0492 9.32485 67.1345 9.81372 67.1322 10.3061C67.1337 10.8014 67.0484 11.2932 66.8803 11.7591L66.8619 11.7683ZM69.0767 8.04826C68.8195 7.3331 68.4132 6.68077 67.8848 6.1345C67.3153 5.55439 66.6268 5.10476 65.8666 4.81666C64.0058 4.16138 61.9769 4.16138 60.116 4.81666C59.3563 5.10554 58.6679 5.55507 58.0979 6.1345C57.5695 6.68077 57.1632 7.3331 56.9059 8.04826C56.642 8.77168 56.5079 9.53605 56.5097 10.3061C56.5068 11.0825 56.6377 11.8535 56.8967 12.5854C57.147 13.2974 57.5496 13.9463 58.0763 14.4869C58.6509 15.0585 59.3383 15.5041 60.0946 15.7955C61.967 16.4508 64.0064 16.4508 65.8788 15.7955C66.3367 15.6094 66.7717 15.3714 67.1752 15.0859V19.5616C67.1752 19.8446 67.2874 20.116 67.4872 20.3164C67.687 20.5168 67.9582 20.6298 68.2411 20.6306H68.407C68.5467 20.6326 68.6853 20.6065 68.8147 20.5537C68.944 20.5009 69.0613 20.4226 69.1596 20.3234C69.2612 20.2243 69.341 20.1051 69.3939 19.9734C69.4468 19.8417 69.4717 19.7004 69.4668 19.5585V10.4628C69.4668 10.4443 69.4668 10.4289 69.4668 10.4136C69.4668 10.3982 69.4668 10.3399 69.4668 10.303C69.4686 9.53297 69.3345 8.76861 69.0705 8.04519L69.0767 8.04826ZM110 5.5877C109.966 5.45247 109.905 5.3254 109.822 5.21406C109.738 5.10273 109.632 5.00942 109.512 4.93958L109.367 4.85356C109.124 4.70927 108.834 4.66703 108.56 4.73611C108.286 4.80519 108.05 4.97994 107.905 5.22216L104.081 11.5778L100.311 5.26821C100.166 5.02599 99.9303 4.85124 99.6563 4.78216C99.3823 4.71308 99.0921 4.75532 98.8491 4.8996L98.7048 4.98562C98.5838 5.05543 98.4779 5.14872 98.3935 5.26004C98.3091 5.37135 98.2478 5.49847 98.2132 5.63382C98.1764 5.77064 98.1683 5.91355 98.1895 6.05365C98.2106 6.19375 98.2606 6.32798 98.3362 6.44783L102.741 13.8203L99.6693 18.9564C99.5979 19.0752 99.5513 19.2072 99.5323 19.3445C99.5133 19.4817 99.5223 19.6215 99.5587 19.7552C99.5868 19.8935 99.6441 20.0242 99.7267 20.1386C99.8094 20.253 99.9155 20.3485 100.038 20.4186L100.182 20.5047C100.425 20.649 100.716 20.6912 100.99 20.6221C101.264 20.553 101.499 20.3783 101.645 20.1361L109.825 6.44476C109.901 6.32506 109.951 6.19075 109.971 6.0505C109.992 5.91026 109.983 5.76725 109.945 5.63074L110 5.5877ZM96.49 13.9248H95.0923C94.7836 13.9254 94.4753 13.9008 94.1707 13.851C93.871 13.8015 93.5917 13.6672 93.3659 13.464C93.0729 13.1651 92.8531 12.8023 92.7239 12.4041C92.5832 11.8632 92.5313 11.303 92.5703 10.7454V6.99156H95.2797C95.421 6.99347 95.5611 6.96541 95.6908 6.90929C95.8205 6.85317 95.9369 6.77023 96.0323 6.66592C96.1301 6.56914 96.2077 6.45383 96.2604 6.32671C96.3131 6.1996 96.34 6.06325 96.3394 5.92563V5.79964C96.337 5.51715 96.2235 5.24696 96.0235 5.0475C95.8234 4.84803 95.5529 4.73531 95.2704 4.73371H92.561V1.0813C92.5673 0.93652 92.5416 0.792163 92.4859 0.658395C92.4302 0.524628 92.3457 0.404712 92.2385 0.307186C92.0398 0.112463 91.7733 0.00235434 91.4951 0H91.2862C91.008 0.00203318 90.7413 0.11219 90.5428 0.307186C90.4356 0.404712 90.3512 0.524628 90.2955 0.658395C90.2397 0.792163 90.214 0.93652 90.2202 1.0813V10.8867C90.1916 11.7762 90.3313 12.6631 90.6319 13.5008C90.8475 14.1093 91.2118 14.6542 91.6917 15.0859C92.1737 15.4919 92.7405 15.7847 93.3505 15.9429C93.9154 16.1016 94.4993 16.1822 95.0861 16.1825H96.4838C96.7663 16.1817 97.0369 16.0692 97.2366 15.8694C97.4364 15.6697 97.5489 15.3991 97.5497 15.1166V14.9907C97.5505 14.853 97.5237 14.7166 97.4709 14.5895C97.4182 14.4623 97.3405 14.347 97.2426 14.2503C97.1472 14.146 97.0308 14.0631 96.9011 14.007C96.7714 13.9508 96.6313 13.9229 96.49 13.9248ZM81.2228 4.76446C81.0847 4.76364 80.9478 4.79038 80.8202 4.84313C80.6925 4.89588 80.5766 4.97357 80.4794 5.07165C80.3762 5.16835 80.2942 5.28549 80.2387 5.41558C80.1831 5.54567 80.1553 5.68587 80.1569 5.82731V11.5993C80.1576 11.908 80.1329 12.2163 80.0831 12.5209C80.0336 12.8206 79.8993 13.0999 79.6961 13.3257C79.4332 13.5956 79.1052 13.7934 78.7438 13.9002C78.1704 14.0664 77.5741 14.14 76.9775 14.1183C76.4097 14.1371 75.8423 14.0709 75.2941 13.9217C74.937 13.8211 74.61 13.6344 74.3418 13.378C74.1234 13.1571 73.974 12.8774 73.9118 12.5731C73.8496 12.2564 73.8187 11.9344 73.8196 11.6116V5.83346C73.8196 5.55047 73.7075 5.27901 73.5076 5.07862C73.3078 4.87823 73.0367 4.76527 72.7537 4.76446H72.6278C72.4881 4.76241 72.3494 4.78855 72.2201 4.84133C72.0908 4.89411 71.9734 4.97245 71.8751 5.07165C71.7735 5.17075 71.6937 5.28994 71.6408 5.42165C71.5879 5.55336 71.5631 5.69468 71.5679 5.83654V11.6086C71.5667 12.2448 71.6705 12.8769 71.8751 13.4793C72.0646 14.0512 72.3867 14.5702 72.8151 14.9938C73.29 15.4531 73.8622 15.7996 74.4893 16.0075C75.2914 16.272 76.1331 16.3967 76.9775 16.3761C77.8907 16.4028 78.8013 16.2644 79.6654 15.9675C80.2992 15.7396 80.8713 15.3673 81.3364 14.8801C81.7396 14.4431 82.0334 13.9167 82.1935 13.3441C82.3545 12.7797 82.4362 12.1956 82.4362 11.6086V5.83346C82.4362 5.55047 82.324 5.27901 82.1241 5.07862C81.9243 4.87823 81.6533 4.76527 81.3703 4.76446H81.2228ZM86.2852 0.128994C86.1161 0.124202 85.9478 0.155427 85.7915 0.220565C85.6353 0.285703 85.4947 0.38326 85.3791 0.506827C85.1467 0.743688 85.0175 1.06287 85.0196 1.39464C85.0193 1.72878 85.1481 2.0501 85.3791 2.2916C85.4934 2.41747 85.6335 2.51721 85.7899 2.58401C85.9463 2.6508 86.1153 2.68308 86.2852 2.67865C86.6234 2.67865 86.9476 2.54432 87.1866 2.30525C87.4257 2.06617 87.56 1.74197 87.56 1.40386C87.56 1.06576 87.4257 0.741478 87.1866 0.502402C86.9476 0.263327 86.6234 0.128994 86.2852 0.128994ZM86.3682 4.73679H86.2023C86.0627 4.73508 85.9241 4.76142 85.7949 4.81418C85.6656 4.86694 85.5483 4.94506 85.4497 5.04397C85.348 5.14237 85.2681 5.26102 85.2152 5.39226C85.1623 5.52349 85.1376 5.66438 85.1425 5.80579V15.132C85.1433 15.4144 85.2558 15.6851 85.4556 15.8848C85.6553 16.0845 85.926 16.1971 86.2085 16.1979H86.3744C86.5147 16.2015 86.6542 16.176 86.7842 16.1231C86.9142 16.0703 87.032 15.9912 87.13 15.8907C87.2281 15.7935 87.3058 15.6777 87.3585 15.55C87.4113 15.4224 87.438 15.2855 87.4372 15.1474V5.82116C87.4364 5.53818 87.3234 5.26703 87.123 5.06722C86.9226 4.86741 86.6512 4.75523 86.3682 4.75523V4.73679ZM53.0477 0.147443C52.876 0.140436 52.7047 0.170583 52.5457 0.235789C52.3867 0.300996 52.2436 0.399721 52.1262 0.525276C52.0106 0.642168 51.9193 0.780804 51.8576 0.933183C51.7959 1.08556 51.765 1.2487 51.7667 1.41309C51.7648 1.74754 51.8939 2.06944 52.1262 2.31005C52.2422 2.43793 52.3848 2.53881 52.544 2.60568C52.7032 2.67255 52.8752 2.70378 53.0477 2.6971C53.3858 2.6971 53.71 2.56277 53.9491 2.32369C54.1882 2.08462 54.3225 1.76034 54.3225 1.42224C54.3225 1.08413 54.1882 0.759927 53.9491 0.520851C53.71 0.281776 53.3858 0.147443 53.0477 0.147443ZM53.1306 4.75523H52.9648C52.8252 4.75353 52.6866 4.77987 52.5573 4.83263C52.4281 4.88539 52.3107 4.96351 52.2121 5.06242C52.1104 5.16082 52.0306 5.27947 51.9777 5.41071C51.9248 5.54194 51.9 5.68282 51.9049 5.82424V15.1504C51.9057 15.4329 52.0183 15.7035 52.218 15.9033C52.4178 16.103 52.6885 16.2156 52.9709 16.2164H53.1368C53.2767 16.2202 53.4158 16.1949 53.5454 16.142C53.675 16.0892 53.7922 16.0098 53.8894 15.9092C53.9879 15.8122 54.0658 15.6964 54.1186 15.5687C54.1714 15.441 54.1979 15.3039 54.1966 15.1657V5.83961C54.1942 5.55712 54.0807 5.28694 53.8806 5.08747C53.6806 4.888 53.41 4.77529 53.1275 4.77368L53.1306 4.75523ZM31.984 11.8205C31.8198 12.2801 31.559 12.6991 31.2191 13.0493C30.8559 13.4196 30.4183 13.7086 29.935 13.8971C28.742 14.3163 27.4418 14.3163 26.2488 13.8971C25.7642 13.7094 25.3254 13.4204 24.9617 13.0493C24.6228 12.6983 24.3621 12.2795 24.1968 11.8205C24.0303 11.3574 23.9461 10.8688 23.948 10.3768C23.9467 9.88171 24.0308 9.39017 24.1968 8.92377C24.3583 8.46574 24.6148 8.04701 24.9494 7.69503C25.314 7.32718 25.7527 7.04129 26.2365 6.85641C27.435 6.43853 28.7396 6.43853 29.9381 6.85641C30.4219 7.04129 30.8606 7.32718 31.2252 7.69503C31.5604 8.04655 31.817 8.46542 31.9778 8.92377C32.3097 9.864 32.3097 10.8895 31.9778 11.8297L31.984 11.8205ZM33.0007 6.20514C32.4274 5.63198 31.7397 5.18608 30.9825 4.89653C29.1112 4.24117 27.0726 4.24117 25.2013 4.89653C24.4447 5.19156 23.7575 5.64029 23.1831 6.21437C22.6523 6.75522 22.2456 7.4051 21.9912 8.11891C21.7314 8.84634 21.6004 9.61355 21.6041 10.386C21.6014 11.1564 21.7366 11.921 22.0035 12.6438C22.2607 13.3589 22.6669 14.0112 23.1953 14.5575C23.7642 15.1369 24.4517 15.5864 25.2105 15.8754C27.0724 16.5306 29.1022 16.5306 30.9641 15.8754C31.7229 15.5864 32.4103 15.1369 32.9792 14.5575C33.5075 14.0106 33.9147 13.3585 34.1742 12.6438C34.4384 11.9204 34.5725 11.1561 34.5704 10.386C34.5733 9.60961 34.4424 8.83851 34.1834 8.10661C33.9331 7.39386 33.5294 6.74477 33.0007 6.20514Z" fill="#DCDFE3"/>
        <path d="M18.2161 5.75329C17.7392 5.29666 17.1676 4.95056 16.542 4.73956C14.8508 4.23792 13.0484 4.25294 11.3659 4.78261C10.7384 5.00686 10.1715 5.37387 9.71015 5.85469L9.62105 5.75329C9.14412 5.29666 8.57257 4.95056 7.9469 4.73956C6.25578 4.23792 4.45333 4.25294 2.77079 4.78261C2.13516 5.00876 1.56167 5.38128 1.09664 5.87006C0.694579 6.30783 0.400994 6.83394 0.239577 7.40599C0.0808857 7.97088 0.00029745 8.55481 0 9.14156V15.2853C0.000810491 15.5677 0.113347 15.8384 0.313073 16.0381C0.5128 16.2378 0.783472 16.3504 1.06593 16.3512H1.19188C1.32997 16.3519 1.4668 16.3251 1.59443 16.2723C1.72205 16.2196 1.8379 16.142 1.93525 16.044C2.03561 15.9466 2.11472 15.8294 2.16759 15.6999C2.22046 15.5703 2.24594 15.4313 2.24244 15.2914V9.14771C2.24164 8.83902 2.26629 8.53079 2.31616 8.22615C2.36504 7.92622 2.49943 7.64673 2.70321 7.42129C2.96532 7.1503 3.29352 6.95234 3.65548 6.84689C4.22864 6.6792 4.82499 6.60454 5.4218 6.62573C5.98974 6.60807 6.55716 6.67534 7.10522 6.82537C7.46235 6.92595 7.78933 7.11266 8.05748 7.36909C8.27507 7.59012 8.42346 7.86986 8.48448 8.17396C8.54945 8.49029 8.58134 8.81248 8.57969 9.13541V15.2791C8.5805 15.5616 8.69307 15.8322 8.8928 16.0319C9.09252 16.2317 9.36316 16.3442 9.64561 16.3451H9.77157C9.91118 16.3468 10.0497 16.3204 10.179 16.2677C10.3083 16.2149 10.4256 16.1368 10.5242 16.0379C10.6258 15.9395 10.7058 15.8208 10.7587 15.6896C10.8116 15.5584 10.8363 15.4175 10.8313 15.2761V9.13234C10.8305 8.82365 10.8552 8.51542 10.9051 8.21078C10.954 7.91085 11.0883 7.63143 11.2921 7.40599C11.5542 7.135 11.8825 6.93697 12.2444 6.83152C12.8176 6.66383 13.4139 6.58916 14.0108 6.61035C14.5787 6.5927 15.1461 6.65997 15.6941 6.80999C16.0513 6.91058 16.3782 7.09728 16.6464 7.35372C16.864 7.57475 17.0124 7.85448 17.0734 8.15858C17.1384 8.47491 17.1703 8.79711 17.1686 9.12004V15.2638C17.1694 15.5462 17.282 15.8168 17.4817 16.0166C17.6814 16.2163 17.9521 16.3289 18.2346 16.3297H18.3605C18.5001 16.3314 18.6386 16.3051 18.7679 16.2524C18.8972 16.1996 19.0146 16.1214 19.1131 16.0225C19.2148 15.9241 19.2947 15.8054 19.3476 15.6742C19.4005 15.543 19.4253 15.4021 19.4203 15.2607V9.11696C19.4203 8.48082 19.3165 7.84899 19.1131 7.24625C18.9207 6.67485 18.599 6.1555 18.1731 5.72869" fill="#DCDFE3"/>
    </symbol>

    <symbol id="mobiquity">
        <path fill-rule="evenodd" clip-rule="evenodd" d="M128.365 1H21.6346C10.2325 1 1 10.184 1 21.5C1 32.816 10.2325 42 21.6346 42H128.365C139.767 42 149 32.816 149 21.5C149 10.184 139.767 1 128.365 1ZM21.6346 0C9.68615 0 0 9.62588 0 21.5C0 33.3741 9.68615 43 21.6346 43H128.365C140.314 43 150 33.3741 150 21.5C150 9.62588 140.314 0 128.365 0H21.6346Z" fill="white"/>
        <path d="M68.8283 18.4493C68.3194 17.9342 67.7063 17.5338 67.03 17.275C66.2145 16.957 65.3428 16.808 64.468 16.837C63.7174 16.8531 62.9758 17.0033 62.2782 17.2805C62.1514 17.3368 62.0382 17.4195 61.946 17.5232C61.8539 17.6269 61.7851 17.749 61.7441 17.8815C61.7031 18.014 61.691 18.1538 61.7085 18.2914C61.7261 18.429 61.7728 18.5612 61.8457 18.6792C62.0975 19.202 62.697 19.1418 63.0939 19.0296C63.5387 18.8886 63.9976 18.7968 64.4625 18.7558C65.024 18.7137 65.5873 18.8076 66.1048 19.0296C66.5361 19.1978 66.9269 19.4552 67.2517 19.785C67.5526 20.0981 67.784 20.4712 67.9306 20.8799C68.0809 21.2921 68.1569 21.7277 68.155 22.1664C68.1566 22.6078 68.0807 23.046 67.9306 23.4611C67.7878 23.8698 67.5591 24.2431 67.2599 24.556C66.936 24.8829 66.5459 25.1368 66.1158 25.3005C65.052 25.6697 63.8949 25.6697 62.8311 25.3005C62.3999 25.1374 62.0087 24.8835 61.6842 24.556C61.3851 24.2431 61.1564 23.8698 61.0136 23.4611C60.8621 23.0426 60.7861 22.6005 60.7891 22.1555V13.9438C60.787 13.6838 60.6828 13.4351 60.499 13.2513C60.3152 13.0675 60.0664 12.9633 59.8064 12.9612H59.6915C59.4327 12.957 59.1827 13.0554 58.9962 13.2349C58.9047 13.327 58.8332 13.437 58.7861 13.5581C58.739 13.6791 58.7173 13.8086 58.7225 13.9384V22.265C58.7306 22.9181 58.8462 23.5655 59.0647 24.181C59.2877 24.8163 59.6464 25.3954 60.1158 25.8781C60.627 26.3877 61.2397 26.7841 61.9141 27.0414C63.5825 27.6254 65.3999 27.6254 67.0683 27.0414C67.7431 26.7813 68.3551 26.381 68.864 25.8672C69.338 25.3871 69.7005 24.8087 69.926 24.1728C70.3913 22.8682 70.3913 21.4428 69.926 20.1382C69.6968 19.5009 69.3348 18.9196 68.864 18.4329L68.8283 18.4493ZM85.5802 23.4365C85.438 23.8455 85.2092 24.2189 84.9095 24.5314C84.5852 24.8598 84.1941 25.1146 83.7627 25.2787C82.699 25.6485 81.5417 25.6485 80.478 25.2787C80.0466 25.1146 79.6555 24.8598 79.3311 24.5314C79.0314 24.2189 78.8027 23.8455 78.6605 23.4365C78.3612 22.5993 78.3612 21.6843 78.6605 20.8471C78.8064 20.4381 79.0379 20.0648 79.3393 19.7522C79.6641 19.4224 80.055 19.1649 80.4862 18.9968C81.5492 18.6232 82.7078 18.6232 83.7709 18.9968C84.2026 19.164 84.5937 19.4216 84.9178 19.7522C85.2192 20.0648 85.4506 20.4381 85.5966 20.8471C85.7471 21.2592 85.8232 21.6949 85.8211 22.1336C85.8224 22.575 85.7464 23.0131 85.5966 23.4283L85.5802 23.4365ZM87.5537 20.1217C87.3246 19.4845 86.9625 18.9032 86.4917 18.4164C85.9842 17.8995 85.3707 17.4989 84.6934 17.2421C83.0352 16.6582 81.2273 16.6582 79.5692 17.2421C78.8922 17.4996 78.2788 17.9001 77.7709 18.4164C77.3001 18.9032 76.938 19.4845 76.7088 20.1217C76.4736 20.7663 76.3541 21.4474 76.3557 22.1336C76.3532 22.8254 76.4698 23.5124 76.7006 24.1646C76.9236 24.7991 77.2824 25.3773 77.7517 25.8589C78.2637 26.3683 78.8762 26.7654 79.5501 27.025C81.2185 27.6089 83.0358 27.6089 84.7043 27.025C85.1122 26.8592 85.4999 26.6471 85.8594 26.3927V30.3808C85.8594 30.633 85.9594 30.8749 86.1374 31.0534C86.3155 31.232 86.5571 31.3327 86.8092 31.3334H86.9571C87.0815 31.3352 87.205 31.3119 87.3203 31.2649C87.4355 31.2179 87.54 31.148 87.6277 31.0597C87.7182 30.9714 87.7893 30.8651 87.8364 30.7478C87.8836 30.6304 87.9057 30.5045 87.9014 30.3781V22.2732C87.9014 22.2568 87.9014 22.2431 87.9014 22.2294C87.9014 22.2157 87.9014 22.1637 87.9014 22.1309C87.903 21.4447 87.7834 20.7636 87.5483 20.119L87.5537 20.1217ZM124.019 17.9292C123.989 17.8087 123.935 17.6955 123.86 17.5963C123.785 17.4971 123.691 17.4139 123.584 17.3517L123.455 17.275C123.239 17.1465 122.98 17.1088 122.736 17.1704C122.492 17.2319 122.282 17.3876 122.152 17.6035L118.744 23.2668L115.386 17.6445C115.256 17.4287 115.046 17.273 114.802 17.2114C114.558 17.1499 114.299 17.1875 114.083 17.3161L113.954 17.3927C113.846 17.4549 113.752 17.538 113.677 17.6372C113.602 17.7364 113.547 17.8497 113.516 17.9703C113.483 18.0922 113.476 18.2195 113.495 18.3444C113.514 18.4692 113.558 18.5888 113.626 18.6956L117.551 25.265L114.814 29.8416C114.75 29.9474 114.709 30.0651 114.692 30.1874C114.675 30.3097 114.683 30.4342 114.715 30.5533C114.74 30.6766 114.791 30.793 114.865 30.895C114.939 30.997 115.033 31.082 115.142 31.1445L115.271 31.2212C115.487 31.3498 115.746 31.3874 115.99 31.3258C116.234 31.2643 116.444 31.1086 116.574 30.8927L123.863 18.6929C123.931 18.5862 123.975 18.4666 123.994 18.3416C124.012 18.2166 124.004 18.0892 123.97 17.9676L124.019 17.9292ZM111.981 25.3581H110.735C110.46 25.3587 110.186 25.3367 109.914 25.2924C109.647 25.2482 109.398 25.1285 109.197 24.9475C108.936 24.6811 108.74 24.3578 108.625 24.0031C108.5 23.521 108.453 23.0219 108.488 22.525V19.1801H110.902C111.028 19.1818 111.153 19.1568 111.269 19.1068C111.384 19.0568 111.488 18.9829 111.573 18.89C111.66 18.8037 111.729 18.701 111.776 18.5877C111.823 18.4744 111.847 18.3529 111.847 18.2303V18.118C111.844 17.8663 111.743 17.6256 111.565 17.4478C111.387 17.2701 111.146 17.1697 110.894 17.1682H108.48V13.9137C108.485 13.7847 108.463 13.6561 108.413 13.5369C108.363 13.4177 108.288 13.3108 108.192 13.2239C108.015 13.0504 107.778 12.9523 107.53 12.9502H107.344C107.096 12.952 106.858 13.0502 106.681 13.2239C106.586 13.3108 106.511 13.4177 106.461 13.5369C106.411 13.6561 106.388 13.7847 106.394 13.9137V22.6509C106.368 23.4435 106.493 24.2339 106.761 24.9803C106.953 25.5225 107.278 26.0081 107.705 26.3927C108.135 26.7545 108.64 27.0153 109.183 27.1564C109.687 27.2978 110.207 27.3696 110.73 27.3699H111.975C112.227 27.3692 112.468 27.2689 112.646 27.0909C112.824 26.9129 112.924 26.6718 112.925 26.4201V26.3079C112.926 26.1852 112.902 26.0636 112.855 25.9503C112.808 25.8371 112.739 25.7343 112.651 25.6482C112.566 25.5552 112.463 25.4813 112.347 25.4313C112.232 25.3813 112.107 25.3564 111.981 25.3581ZM98.3768 17.1956C98.2537 17.1949 98.1317 17.2187 98.018 17.2657C97.9042 17.3127 97.801 17.382 97.7143 17.4694C97.6223 17.5555 97.5493 17.6599 97.4998 17.7758C97.4503 17.8917 97.4255 18.0167 97.4269 18.1427V23.286C97.4275 23.561 97.4055 23.8357 97.3612 24.1071C97.317 24.3742 97.1974 24.623 97.0164 24.8243C96.782 25.0647 96.4898 25.241 96.1678 25.3361C95.6568 25.4842 95.1255 25.5498 94.5939 25.5305C94.0879 25.5473 93.5824 25.4882 93.0939 25.3553C92.7757 25.2657 92.4843 25.0993 92.2453 24.8708C92.0507 24.674 91.9176 24.4248 91.8621 24.1536C91.8067 23.8714 91.7792 23.5845 91.78 23.2969V18.1482C91.78 17.896 91.6801 17.6541 91.502 17.4756C91.324 17.297 91.0824 17.1964 90.8302 17.1956H90.718C90.5936 17.1938 90.47 17.2171 90.3547 17.2641C90.2395 17.3112 90.1349 17.381 90.0473 17.4694C89.9568 17.5577 89.8857 17.6639 89.8386 17.7812C89.7914 17.8986 89.7693 18.0245 89.7736 18.1509V23.2942C89.7725 23.8611 89.865 24.4243 90.0473 24.9611C90.2161 25.4707 90.5032 25.9332 90.8849 26.3106C91.3081 26.7199 91.8179 27.0287 92.3767 27.2139C93.0915 27.4496 93.8415 27.5607 94.5939 27.5424C95.4077 27.5661 96.219 27.4428 96.989 27.1783C97.5538 26.9752 98.0636 26.6435 98.478 26.2093C98.8373 25.82 99.099 25.3509 99.2417 24.8407C99.3852 24.3377 99.4579 23.8172 99.4579 23.2942V18.1482C99.4579 17.896 99.3579 17.6541 99.1799 17.4756C99.0018 17.297 98.7603 17.1964 98.5081 17.1956H98.3768ZM102.888 13.0651C102.737 13.0609 102.587 13.0887 102.448 13.1467C102.309 13.2048 102.183 13.2917 102.08 13.4018C101.873 13.6129 101.758 13.8973 101.76 14.1929C101.76 14.4906 101.874 14.777 102.08 14.9922C102.182 15.1043 102.307 15.1932 102.446 15.2527C102.586 15.3122 102.736 15.341 102.888 15.337C103.189 15.337 103.478 15.2173 103.691 15.0043C103.904 14.7913 104.024 14.5024 104.024 14.2011C104.024 13.8999 103.904 13.6109 103.691 13.3979C103.478 13.1848 103.189 13.0651 102.888 13.0651ZM102.962 17.171H102.814C102.689 17.1695 102.566 17.1929 102.451 17.2399C102.336 17.287 102.231 17.3566 102.143 17.4447C102.053 17.5324 101.981 17.6381 101.934 17.755C101.887 17.872 101.865 17.9975 101.869 18.1235V26.4338C101.87 26.6855 101.97 26.9266 102.148 27.1046C102.326 27.2826 102.568 27.3829 102.819 27.3836H102.967C103.092 27.3868 103.216 27.3641 103.332 27.317C103.448 27.2699 103.553 27.1994 103.64 27.1099C103.728 27.0232 103.797 26.92 103.844 26.8063C103.891 26.6925 103.915 26.5705 103.914 26.4475V18.1372C103.913 17.8851 103.813 17.6435 103.634 17.4654C103.456 17.2874 103.214 17.1874 102.962 17.1874V17.171ZM73.2709 13.0816C73.1179 13.0753 72.9653 13.1022 72.8236 13.1603C72.6819 13.2184 72.5544 13.3064 72.4497 13.4183C72.3468 13.5224 72.2654 13.6459 72.2104 13.7817C72.1555 13.9175 72.1279 14.0629 72.1294 14.2093C72.1278 14.5074 72.2427 14.7942 72.4497 15.0086C72.5531 15.1225 72.6802 15.2124 72.822 15.272C72.9639 15.3316 73.1172 15.3594 73.2709 15.3535C73.5722 15.3535 73.8611 15.2338 74.0741 15.0208C74.2871 14.8077 74.4068 14.5188 74.4068 14.2175C74.4068 13.9162 74.2871 13.6273 74.0741 13.4143C73.8611 13.2013 73.5722 13.0816 73.2709 13.0816ZM73.3448 17.1874H73.197C73.0726 17.1859 72.9491 17.2094 72.8339 17.2564C72.7188 17.3034 72.6141 17.373 72.5263 17.4611C72.4357 17.5488 72.3646 17.6545 72.3174 17.7715C72.2703 17.8884 72.2482 18.014 72.2526 18.14V26.4502C72.2533 26.7019 72.3536 26.9431 72.5316 27.121C72.7096 27.299 72.9508 27.3993 73.2025 27.4H73.3502C73.4749 27.4035 73.5989 27.3809 73.7144 27.3338C73.8298 27.2867 73.9343 27.216 74.0209 27.1263C74.1087 27.0399 74.1781 26.9367 74.2251 26.8229C74.2722 26.7091 74.2958 26.587 74.2946 26.4638V18.1537C74.2925 17.902 74.1913 17.6612 74.0131 17.4835C73.8348 17.3057 73.5937 17.2053 73.342 17.2039L73.3448 17.1874ZM54.5017 23.483C54.3554 23.8925 54.123 24.2659 53.8202 24.5779C53.4966 24.9079 53.1066 25.1655 52.676 25.3334C51.613 25.7069 50.4544 25.7069 49.3913 25.3334C48.9596 25.1662 48.5685 24.9086 48.2444 24.5779C47.9425 24.2652 47.7102 23.892 47.5628 23.483C47.4145 23.0704 47.3395 22.635 47.3411 22.1966C47.34 21.7554 47.415 21.3174 47.5628 20.9019C47.7067 20.4937 47.9353 20.1206 48.2335 19.807C48.5583 19.4792 48.9493 19.2244 49.3804 19.0597C50.4483 18.6873 51.6108 18.6873 52.6787 19.0597C53.1098 19.2244 53.5008 19.4792 53.8256 19.807C54.1243 20.1202 54.353 20.4934 54.4963 20.9019C54.792 21.7397 54.792 22.6535 54.4963 23.4913L54.5017 23.483ZM55.4077 18.4794C54.8969 17.9687 54.2841 17.5713 53.6094 17.3133C51.9419 16.7293 50.1254 16.7293 48.4579 17.3133C47.7837 17.5762 47.1714 17.9761 46.6596 18.4876C46.1866 18.9695 45.8242 19.5486 45.5975 20.1847C45.366 20.8329 45.2493 21.5165 45.2526 22.2048C45.2502 22.8913 45.3707 23.5726 45.6085 24.2166C45.8377 24.8539 46.1997 25.4351 46.6705 25.9219C47.1774 26.4381 47.79 26.8387 48.4661 27.0962C50.1252 27.68 51.9339 27.68 53.593 27.0962C54.2691 26.8387 54.8817 26.4381 55.3886 25.9219C55.8593 25.4345 56.2221 24.8535 56.4534 24.2166C56.6888 23.572 56.8083 22.891 56.8065 22.2048C56.809 21.513 56.6923 20.8259 56.4616 20.1737C56.2385 19.5386 55.8788 18.9602 55.4077 18.4794Z" fill="white"/>
        <path d="M42.2337 18.0767C41.8087 17.6699 41.2994 17.3615 40.7419 17.1735C39.235 16.7265 37.629 16.7398 36.1297 17.2118C35.5705 17.4116 35.0655 17.7387 34.6543 18.1671L34.5749 18.0767C34.15 17.6699 33.6407 17.3615 33.0832 17.1735C31.5763 16.7265 29.9702 16.7398 28.4709 17.2118C27.9045 17.4133 27.3935 17.7453 26.9791 18.1808C26.6209 18.5709 26.3593 19.0397 26.2154 19.5494C26.074 20.0528 26.0022 20.5731 26.002 21.0959V26.5704C26.0027 26.8221 26.103 27.0632 26.2809 27.2412C26.4589 27.4191 26.7001 27.5195 26.9518 27.5202H27.064C27.187 27.5208 27.309 27.4969 27.4227 27.4499C27.5364 27.4029 27.6396 27.3337 27.7264 27.2465C27.8158 27.1596 27.8863 27.0552 27.9334 26.9398C27.9805 26.8244 28.0032 26.7005 28.0001 26.5759V21.1014C27.9994 20.8263 28.0214 20.5517 28.0658 20.2802C28.1094 20.013 28.2291 19.7639 28.4107 19.563C28.6442 19.3216 28.9367 19.1452 29.2592 19.0512C29.7699 18.9018 30.3013 18.8353 30.8331 18.8541C31.3392 18.8384 31.8448 18.8984 32.3332 19.032C32.6514 19.1217 32.9428 19.288 33.1817 19.5165C33.3756 19.7135 33.5078 19.9627 33.5622 20.2337C33.6201 20.5156 33.6485 20.8027 33.647 21.0904V26.5649C33.6477 26.8166 33.748 27.0577 33.926 27.2357C34.104 27.4137 34.3451 27.514 34.5968 27.5147H34.7091C34.8335 27.5162 34.9569 27.4928 35.0721 27.4457C35.1873 27.3987 35.2918 27.3291 35.3797 27.241C35.4703 27.1533 35.5415 27.0476 35.5886 26.9306C35.6358 26.8137 35.6578 26.6882 35.6534 26.5622V21.0877C35.6527 20.8126 35.6747 20.538 35.7191 20.2665C35.7627 19.9993 35.8824 19.7503 36.064 19.5494C36.2975 19.3079 36.59 19.1315 36.9125 19.0375C37.4233 18.8881 37.9546 18.8216 38.4864 18.8404C38.9925 18.8247 39.4981 18.8847 39.9864 19.0183C40.3047 19.108 40.596 19.2743 40.835 19.5028C41.0289 19.6998 41.1611 19.949 41.2154 20.22C41.2733 20.5019 41.3018 20.789 41.3003 21.0767V26.5512C41.301 26.8029 41.4013 27.044 41.5793 27.222C41.7573 27.4 41.9984 27.5003 42.2501 27.501H42.3623C42.4867 27.5025 42.6102 27.4791 42.7254 27.4321C42.8406 27.3851 42.9452 27.3154 43.033 27.2273C43.1236 27.1396 43.1948 27.0339 43.2419 26.9169C43.2891 26.8 43.3111 26.6745 43.3067 26.5485V21.074C43.3067 20.5072 43.2142 19.9442 43.033 19.4071C42.8615 18.8979 42.5748 18.4351 42.1954 18.0548" fill="white"/>
        <path d="M26.7422 62.2196L28.1238 54.3684H29.1765L29.1436 55.2127C29.3629 54.9349 29.6334 54.7046 29.955 54.5219C30.2767 54.3318 30.6715 54.2368 31.1393 54.2368C31.5925 54.2368 31.9836 54.3391 32.3126 54.5438C32.6489 54.7485 32.9084 55.0299 33.0912 55.3881C33.2739 55.739 33.3653 56.1338 33.3653 56.5724C33.3653 57.0476 33.2849 57.4898 33.1241 57.8992C32.9705 58.3013 32.7512 58.6558 32.4661 58.9629C32.181 59.2699 31.8448 59.5111 31.4573 59.6866C31.0772 59.8547 30.6641 59.9388 30.2182 59.9388C29.8015 59.9388 29.4397 59.8401 29.1326 59.6427C28.8256 59.4453 28.6063 59.2224 28.4747 58.9738L27.9045 62.2196H26.7422ZM30.2073 58.93C30.5874 58.93 30.9237 58.8349 31.2161 58.6449C31.5085 58.4548 31.7388 58.1989 31.9069 57.8773C32.0823 57.5483 32.1701 57.1792 32.1701 56.7698C32.1701 56.3312 32.0421 55.9693 31.7863 55.6842C31.5304 55.3918 31.1832 55.2456 30.7446 55.2456C30.3717 55.2456 30.0355 55.3443 29.7357 55.5417C29.436 55.739 29.1984 56.0059 29.023 56.3421C28.8549 56.6711 28.7708 57.0439 28.7708 57.4606C28.7708 57.8919 28.9024 58.2465 29.1655 58.5242C29.4287 58.7947 29.7759 58.93 30.2073 58.93Z" fill="white"/>
        <path d="M35.5566 59.9388C34.9425 59.9388 34.4929 59.7962 34.2078 59.5111C33.93 59.226 33.7911 58.8861 33.7911 58.4913C33.7911 57.8919 34.036 57.4204 34.5258 57.0768C35.0229 56.7332 35.6772 56.5614 36.4886 56.5614H37.9141L37.9251 56.4628C37.947 56.3604 37.958 56.2544 37.958 56.1448C37.958 55.8304 37.863 55.5928 37.6729 55.432C37.4828 55.2712 37.2343 55.1908 36.9272 55.1908C36.6056 55.1908 36.3095 55.2712 36.039 55.432C35.7686 55.5855 35.5785 55.8158 35.4688 56.1228H34.3175C34.4271 55.7281 34.6172 55.3918 34.8877 55.114C35.1582 54.8289 35.4835 54.6133 35.8636 54.467C36.2437 54.3135 36.6495 54.2368 37.0808 54.2368C37.746 54.2368 38.2541 54.3903 38.6049 54.6973C38.9558 54.997 39.1313 55.4174 39.1313 55.9583C39.1313 56.0388 39.1276 56.1228 39.1203 56.2105C39.1203 56.291 39.1094 56.375 39.0874 56.4628L38.5063 59.8072H37.4645L37.5523 58.8971C37.3403 59.1968 37.0698 59.4453 36.7408 59.6427C36.4192 59.8401 36.0244 59.9388 35.5566 59.9388ZM35.9513 58.9958C36.2584 58.9958 36.5325 58.9227 36.7737 58.7765C37.0223 58.6229 37.2306 58.4219 37.3988 58.1734C37.5669 57.9248 37.6875 57.6507 37.7606 57.3509H36.4667C36.0281 57.3509 35.6808 57.4387 35.425 57.6141C35.1691 57.7896 35.0412 58.0271 35.0412 58.3269C35.0412 58.5462 35.1216 58.7143 35.2824 58.8313C35.4433 58.9409 35.6662 58.9958 35.9513 58.9958Z" fill="white"/>
        <path d="M39.544 59.8072L40.498 54.3684H41.5507L41.4739 55.3443C41.7225 55.008 42.0368 54.7412 42.417 54.5438C42.7971 54.3391 43.2248 54.2368 43.6999 54.2368L43.4806 55.4539H43.1626C42.841 55.4539 42.5449 55.5051 42.2744 55.6074C42.0039 55.7025 41.7737 55.867 41.5836 56.1009C41.3935 56.3348 41.2656 56.6528 41.1998 57.0549L40.7064 59.8072H39.544Z" fill="white"/>
        <path d="M46.0327 59.8072C45.5576 59.8072 45.1811 59.7122 44.9033 59.5221C44.6328 59.3247 44.4976 58.9921 44.4976 58.5242C44.4976 58.3634 44.5158 58.1916 44.5524 58.0089L45.0239 55.3443H44.1576L44.3331 54.3684H45.1994L45.5831 52.9867H46.6029L46.3617 54.3684H47.8968L47.7214 55.3443H46.1862L45.7147 58.0089C45.6928 58.1112 45.6818 58.2026 45.6818 58.283C45.6818 58.4804 45.7367 58.6193 45.8463 58.6997C45.956 58.7801 46.1387 58.8203 46.3946 58.8203H47.1183L46.9429 59.8072H46.0327Z" fill="white"/>
        <path d="M53.5121 59.9388C53.0515 59.9388 52.6421 59.8364 52.2839 59.6318C51.933 59.4198 51.6553 59.1347 51.4506 58.7765C51.2532 58.4109 51.1545 57.9979 51.1545 57.5374C51.1545 57.0695 51.2349 56.6345 51.3957 56.2325C51.5639 55.8304 51.7942 55.4795 52.0866 55.1798C52.3863 54.8801 52.7299 54.6498 53.1173 54.489C53.5121 54.3208 53.9361 54.2368 54.3893 54.2368C54.8572 54.2368 55.2665 54.3391 55.6174 54.5438C55.9756 54.7412 56.2571 55.019 56.4618 55.3772C56.6664 55.7281 56.7688 56.1374 56.7688 56.6053C56.7688 57.0732 56.6847 57.5118 56.5166 57.9211C56.3484 58.3232 56.1145 58.6778 55.8148 58.9848C55.5224 59.2845 55.1788 59.5184 54.7841 59.6866C54.3966 59.8547 53.9726 59.9388 53.5121 59.9388ZM53.6656 58.9409C54.0238 58.9409 54.3454 58.8422 54.6305 58.6449C54.9229 58.4402 55.1532 58.1697 55.3214 57.8334C55.4895 57.4898 55.5736 57.1024 55.5736 56.6711C55.5736 56.2179 55.442 55.867 55.1788 55.6184C54.9229 55.3626 54.6159 55.2346 54.2577 55.2346C53.8995 55.2346 53.5742 55.337 53.2818 55.5417C52.9967 55.739 52.7701 56.0095 52.6019 56.3531C52.4338 56.6894 52.3497 57.0732 52.3497 57.5045C52.3497 57.9577 52.4777 58.3122 52.7335 58.5681C52.9967 58.8167 53.3074 58.9409 53.6656 58.9409Z" fill="white"/>
        <path d="M57.4444 59.8072L58.2339 55.3443H57.4553L57.6308 54.3684H58.4093L58.5409 53.5789C58.6506 52.9867 58.8772 52.5627 59.2208 52.3069C59.5643 52.0437 60.0066 51.9121 60.5476 51.9121H61.1178L60.9423 52.899H60.5476C60.2917 52.899 60.098 52.9538 59.9664 53.0635C59.8348 53.1658 59.7471 53.3413 59.7032 53.5898L59.5716 54.3684H60.8217L60.6463 55.3443H59.3962L58.6067 59.8072H57.4444Z" fill="white"/>
        <path d="M66.5892 59.338C66.5591 59.5592 66.4452 59.7606 66.2707 59.9007C65.9242 60.1906 65.4142 60.1906 65.159 59.8912C65.0951 59.8153 65.0482 59.7267 65.0216 59.6313C64.9949 59.5359 64.9891 59.4359 65.0045 59.338L65.8037 53.6659C65.8359 53.4527 65.9413 53.2573 66.1019 53.1128C66.4479 52.8038 66.9673 52.8038 67.2316 53.1033C67.2957 53.1809 67.3426 53.2712 67.3692 53.3681C67.3958 53.4651 67.4016 53.5666 67.386 53.6659L66.5892 59.338Z" fill="white"/>
        <path d="M70.9153 59.338C70.8854 59.5593 70.7714 59.7607 70.5968 59.9007C70.2503 60.1906 69.7403 60.1906 69.485 59.8912C69.4212 59.8152 69.3744 59.7266 69.3478 59.6312C69.3212 59.5358 69.3153 59.4359 69.3306 59.338L70.1322 53.6659C70.1644 53.4527 70.2698 53.2573 70.4304 53.1128C70.7763 52.8038 71.2958 52.8038 71.56 53.1033C71.6239 53.181 71.6708 53.2713 71.6975 53.3682C71.7242 53.4651 71.7302 53.5666 71.7151 53.6659L70.9153 59.338Z" fill="white"/>
        <path d="M68.6667 55.7081C68.7672 55.7048 68.8671 55.7244 68.9588 55.7657C69.0504 55.8069 69.1313 55.8685 69.1952 55.9458C69.4409 56.2428 69.3681 56.7627 69.0312 57.0532C68.8673 57.1969 68.6572 57.2772 68.4389 57.2796H66.0794C65.981 57.2823 65.883 57.2643 65.792 57.2269C65.701 57.1894 65.6188 57.1333 65.551 57.0621C65.2868 56.7651 65.3596 56.2452 65.7061 55.9369C65.8671 55.7873 66.0782 55.7026 66.2983 55.6992H68.6667V55.7081Z" fill="white"/>
        <path d="M76.3461 60.0736H72.6483C72.549 60.0764 72.4503 60.0576 72.3591 60.0184C72.2679 59.9792 72.1865 59.9206 72.1205 59.8466C72.0564 59.7707 72.0094 59.682 71.9827 59.5865C71.9559 59.491 71.95 59.3909 71.9654 59.2929L72.7485 53.7212C72.7797 53.5068 72.8864 53.3105 73.0497 53.1675C73.2098 53.0168 73.4211 52.932 73.6413 52.9298H77.3392C77.4357 52.9279 77.5315 52.9473 77.6196 52.9865C77.7078 53.0258 77.7861 53.0839 77.8491 53.1568C77.9117 53.2315 77.9571 53.3189 77.9822 53.4129C78.0073 53.5069 78.0116 53.6052 77.9947 53.701C77.9641 53.915 77.8536 54.1096 77.6851 54.2458C77.528 54.3817 77.3283 54.4588 77.1203 54.4638H74.2235L74.041 55.7519H76.6104C76.7063 55.7485 76.8017 55.7662 76.8899 55.8039C76.9781 55.8416 77.0568 55.8983 77.1203 55.97C77.1847 56.0436 77.2313 56.1309 77.2565 56.2252C77.2817 56.3196 77.2849 56.4184 77.2658 56.5142C77.2354 56.7282 77.1248 56.9228 76.9563 57.059C76.7983 57.1921 76.5984 57.2659 76.3915 57.2675H73.8227L73.6402 58.5651H76.5394C76.636 58.5631 76.7319 58.5824 76.8201 58.6217C76.9084 58.6609 76.9869 58.7191 77.0499 58.792C77.1125 58.8669 77.1579 58.9544 77.183 59.0485C77.2081 59.1426 77.2124 59.241 77.1955 59.3369C77.1648 59.5506 77.0542 59.745 76.8859 59.8811C76.7348 60.0051 76.5449 60.0726 76.3491 60.0718L76.3461 60.0736Z" fill="white"/>
        <path d="M83.3322 60.1196C83.2143 60.1236 83.0975 60.0952 82.9946 60.0376C82.8917 59.98 82.8068 59.8953 82.7489 59.7928L81.3735 57.7057L79.4238 59.8113C79.1781 60.0655 78.9318 60.1196 78.7678 60.1196C78.672 60.1207 78.5772 60.1007 78.4902 60.061C78.4031 60.0214 78.3259 59.963 78.2641 59.8902C78.2022 59.8174 78.1573 59.7319 78.1325 59.6398C78.1077 59.5476 78.1037 59.4512 78.1206 59.3573C78.1451 59.1776 78.2246 59.0097 78.3485 58.8767L80.6352 56.4901L79.0505 54.1302C78.9627 53.9829 78.9274 53.8104 78.9503 53.6407C78.9782 53.4259 79.0844 53.2289 79.2485 53.0869C79.5127 52.86 79.8956 52.7964 80.1777 52.9509C80.2798 53.0014 80.3652 53.0802 80.4234 53.1779L81.7809 55.265L83.7306 53.1594C83.9948 52.8327 84.596 52.7691 84.8781 53.0869C84.9439 53.1599 84.9921 53.2469 85.0189 53.3412C85.0458 53.4355 85.0507 53.5347 85.0332 53.6312C85.0091 53.7969 84.9363 53.9517 84.8239 54.0762L82.5282 56.4806L84.1314 58.8571C84.1791 58.925 84.2126 59.0017 84.2298 59.0828C84.247 59.1638 84.2477 59.2475 84.2316 59.3288C84.1994 59.5422 84.094 59.7378 83.9334 59.8825C83.854 59.9599 83.76 60.0207 83.6568 60.0615C83.5535 60.1023 83.4432 60.1222 83.3322 60.1202V60.1196Z" fill="white"/>
        <path d="M90.566 60.119C90.4171 60.12 90.2714 60.0756 90.1485 59.9919C90.0306 59.9072 89.9432 59.787 89.8992 59.6491L89.5622 58.4329H86.9224L86.2478 59.6402C86.1644 59.7852 86.0454 59.9068 85.9019 59.9937C85.5441 60.2028 85.1266 60.1481 84.9089 59.8938C84.8472 59.817 84.8031 59.7278 84.7795 59.6323C84.7559 59.5367 84.7534 59.4373 84.7723 59.3407C84.7945 59.2262 84.8348 59.1159 84.8916 59.0139L88.0252 53.4785C88.1199 53.316 88.247 53.1744 88.3986 53.0626C88.568 52.9406 88.7728 52.877 88.9819 52.8814H89.0725C89.2652 52.8743 89.4536 52.9389 89.601 53.0626C89.7231 53.1719 89.8116 53.3134 89.8562 53.4708L91.432 59.0062C91.4676 59.1113 91.477 59.2235 91.4594 59.333C91.4262 59.5446 91.3237 59.7393 91.1678 59.8867C91.0889 59.9647 90.9949 60.0259 90.8916 60.0668C90.7883 60.1076 90.6777 60.1272 90.5666 60.1244L90.566 60.119ZM87.7693 56.9339H89.1453L88.6896 55.2822L87.7693 56.9339Z" fill="white"/>
        <path d="M97.7377 60.1185C97.5415 60.122 97.3507 60.0542 97.2009 59.9278C97.0552 59.8015 96.9585 59.6283 96.9278 59.4383L96.2991 55.8807L94.6685 59.4454C94.5788 59.6416 94.4356 59.8088 94.2552 59.9278C93.8907 60.1821 93.4261 60.1732 93.144 59.9373C93.0014 59.8119 92.9052 59.6425 92.8709 59.4561L91.8414 53.9117C91.8251 53.822 91.8218 53.7303 91.8319 53.6396C91.8555 53.425 91.9597 53.2272 92.1235 53.0859C92.4217 52.8227 92.9162 52.7888 93.1893 53.0401C93.3006 53.1523 93.3767 53.2944 93.4082 53.4489L94.0548 57.36L95.8059 53.4697C95.8877 53.2906 96.0167 53.137 96.1792 53.0253C96.5162 52.7983 96.9445 52.8072 97.2176 53.0253C97.3558 53.1366 97.4477 53.2949 97.4759 53.4697L98.1319 57.363L99.8807 53.4519C99.9535 53.2856 100.07 53.142 100.218 53.036C100.555 52.7823 101.038 52.8185 101.266 53.0817C101.329 53.161 101.375 53.2534 101.398 53.3522C101.422 53.451 101.423 53.5539 101.402 53.6533C101.384 53.7343 101.36 53.8138 101.329 53.8909L98.7284 59.4288C98.6348 59.6258 98.4908 59.7949 98.3109 59.9189C98.1495 60.0512 97.9461 60.122 97.7371 60.1185H97.7377Z" fill="white"/>
        <path d="M105.926 60.1189C105.777 60.1198 105.632 60.0755 105.509 59.9917C105.392 59.9061 105.305 59.7853 105.263 59.6471L104.924 58.4309H102.283L101.608 59.6382C101.525 59.7833 101.406 59.9049 101.262 59.9917C100.904 60.2008 100.487 60.1462 100.269 59.8919C100.208 59.8151 100.163 59.7258 100.14 59.6303C100.116 59.5348 100.114 59.4353 100.133 59.3388C100.155 59.2243 100.195 59.114 100.252 59.012L103.386 53.4765C103.48 53.314 103.607 53.1725 103.759 53.0606C103.928 52.9387 104.133 52.8751 104.342 52.8794H104.433C104.626 52.8723 104.814 52.9369 104.961 53.0606C105.083 53.1701 105.172 53.3115 105.217 53.4688L106.792 59.0043C106.828 59.1094 106.837 59.2215 106.82 59.331C106.787 59.5426 106.684 59.7373 106.528 59.8848C106.367 60.0395 106.151 60.1249 105.927 60.1224L105.926 60.1189ZM103.123 56.9337H104.498L104.043 55.2821L103.123 56.9337Z" fill="white"/>
        <path d="M112.348 60.1192C112.23 60.1232 112.114 60.0949 112.011 60.0372C111.908 59.9796 111.823 59.8949 111.766 59.7924L109.439 56.1356L111.288 56.1172L113.146 58.8668C113.194 58.935 113.227 59.0118 113.244 59.0929C113.261 59.174 113.262 59.2577 113.246 59.3391C113.213 59.5505 113.111 59.745 112.955 59.8923C112.788 60.0417 112.57 60.1228 112.345 60.1192H112.348Z" fill="white"/>
        <path d="M108.114 60.1186C108.015 60.1216 107.916 60.1028 107.824 60.0636C107.733 60.0244 107.652 59.9657 107.586 59.8916C107.521 59.8163 107.475 59.7274 107.449 59.6316C107.424 59.5359 107.421 59.4357 107.44 59.3385L108.232 53.7211C108.262 53.5071 108.368 53.3109 108.53 53.1673C108.69 53.0167 108.902 52.9319 109.122 52.9297H111.272C112.192 52.9297 112.875 53.1293 113.303 53.5286C113.75 53.9445 113.932 54.4905 113.832 55.1624C113.75 55.734 113.295 57.5853 110.798 57.5853H109.261L109.016 59.3456C108.986 59.567 108.871 59.7684 108.697 59.9083C108.532 60.0418 108.326 60.1154 108.114 60.1168V60.1186ZM109.48 56.0441H110.776C111.232 56.0441 111.597 55.9627 111.861 55.7993C111.966 55.7415 112.055 55.6593 112.122 55.5597C112.189 55.4602 112.23 55.3461 112.243 55.2272C112.279 54.9824 112.225 54.8113 112.07 54.683C111.942 54.5831 111.653 54.4649 110.949 54.4649H109.699L109.48 56.0441Z" fill="white"/>
        <path d="M118.379 60.0736H114.681C114.582 60.0764 114.483 60.0576 114.392 60.0184C114.301 59.9792 114.219 59.9206 114.153 59.8466C114.089 59.7712 114.042 59.6823 114.017 59.5864C113.992 59.4905 113.988 59.3902 114.007 59.2929L114.791 53.7212C114.821 53.5072 114.927 53.311 115.089 53.1675C115.253 53.0163 115.467 52.9316 115.69 52.9298H119.388C119.485 52.9279 119.581 52.9473 119.669 52.9865C119.757 53.0258 119.835 53.0839 119.898 53.1568C119.961 53.2314 120.006 53.3188 120.032 53.4128C120.057 53.5068 120.061 53.6051 120.044 53.701C120.014 53.915 119.903 54.1096 119.735 54.2458C119.578 54.3817 119.378 54.4588 119.17 54.4638H116.265L116.086 55.7519H118.655C118.751 55.7485 118.847 55.7662 118.935 55.8039C119.023 55.8416 119.102 55.8983 119.165 55.97C119.23 56.0435 119.276 56.1308 119.302 56.2252C119.327 56.3195 119.33 56.4184 119.311 56.5142C119.281 56.7283 119.17 56.9229 119.001 57.059C118.843 57.1921 118.643 57.2659 118.436 57.2675H115.865L115.683 58.5651H118.588C118.684 58.5632 118.78 58.5826 118.868 58.6218C118.956 58.661 119.035 58.7192 119.098 58.792C119.16 58.8668 119.206 58.9543 119.231 59.0484C119.256 59.1425 119.261 59.2409 119.244 59.3369C119.213 59.5508 119.102 59.7452 118.934 59.8811C118.775 60.0041 118.58 60.0712 118.379 60.0718L118.379 60.0736Z" fill="white"/>
    </symbol>


    <!-- icons -->
    <symbol id="globe">
        <path fill-rule="evenodd" clip-rule="evenodd" d="M16 29C23.1797 29 29 23.1797 29 16C29 8.8203 23.1797 3 16 3C8.8203 3 3 8.8203 3 16C3 23.1797 8.8203 29 16 29ZM16 30C23.732 30 30 23.732 30 16C30 8.26801 23.732 2 16 2C8.26801 2 2 8.26801 2 16C2 23.732 8.26801 30 16 30Z" fill="#38B0FF"/>
        <path fill-rule="evenodd" clip-rule="evenodd" d="M28.188 22.11C28.1881 22.1101 28.1882 22.1102 27.8476 22.4762C27.507 22.8422 27.5071 22.8423 27.5071 22.8423L27.5044 22.8398L27.4941 22.8304L27.4506 22.7908C27.4116 22.7556 27.3527 22.7029 27.2748 22.6347C27.119 22.4983 26.8872 22.2999 26.5868 22.055C25.9857 21.5651 25.1105 20.8898 24.0189 20.1524C21.8323 18.6755 18.7942 16.9612 15.3626 15.9808C11.6128 14.9094 8.49764 14.6584 6.32675 14.6736C5.24121 14.6813 4.39179 14.7555 3.81732 14.8269C3.5301 14.8627 3.31166 14.8977 3.16688 14.9234C3.09448 14.9363 3.04051 14.9468 3.00557 14.9539L2.9675 14.9618L2.95931 14.9636L2.95814 14.9638C2.95828 14.9638 2.95844 14.9638 2.84761 14.4762C2.73679 13.9886 2.73698 13.9886 2.7372 13.9886L2.73911 13.9881L2.74329 13.9872L2.75717 13.9842C2.76886 13.9817 2.78544 13.9782 2.80682 13.9738C2.84957 13.9652 2.91154 13.9531 2.9921 13.9388C3.15323 13.9102 3.38878 13.8725 3.69385 13.8346C4.30396 13.7587 5.19235 13.6816 6.31973 13.6737C8.57465 13.6578 11.7857 13.9188 15.6374 15.0192C19.2058 16.0388 22.3415 17.8126 24.5787 19.3238C25.699 20.0805 26.5983 20.7743 27.2186 21.2799C27.5288 21.5327 27.7695 21.7387 27.9335 21.8823C28.0155 21.954 28.0783 22.0102 28.1211 22.0489L28.17 22.0934L28.183 22.1053L28.1866 22.1087L28.188 22.11Z" fill="#38B0FF"/>
        <path fill-rule="evenodd" clip-rule="evenodd" d="M21.7046 28.4656C21.7046 28.4658 21.7046 28.4659 21.2086 28.4024C20.7127 28.3389 20.7126 28.339 20.7126 28.3391L20.7131 28.3353L20.7148 28.3211L20.7218 28.2614C20.7278 28.208 20.7365 28.1278 20.7468 28.0225C20.7672 27.8119 20.794 27.5014 20.8184 27.1063C20.8673 26.3157 20.9069 25.1874 20.8691 23.8426C20.7935 21.1488 20.4081 17.6067 19.1793 14.1746C17.8366 10.4246 16.1908 7.68959 14.8859 5.89666C14.2334 5.00011 13.6661 4.33914 13.2647 3.90473C13.0641 3.68753 12.9049 3.52701 12.7973 3.42204C12.7435 3.36956 12.7026 3.33097 12.6758 3.30614L12.6465 3.27918L12.6401 3.27341L12.6392 3.27256C12.6393 3.27265 12.6394 3.27276 12.971 2.89857C13.3027 2.52437 13.3028 2.52451 13.303 2.52465L13.3045 2.52597L13.3077 2.52886L13.3184 2.53854C13.3274 2.54672 13.3402 2.55836 13.3565 2.57349C13.389 2.60375 13.4358 2.64795 13.4956 2.70623C13.615 2.82278 13.7863 2.99568 13.9992 3.22609C14.425 3.68688 15.0173 4.37784 15.6944 5.30821C17.0488 7.16909 18.7424 9.98782 20.1207 13.8375C21.3975 17.4036 21.7914 21.0598 21.8687 23.8146C21.9074 25.1941 21.8669 26.3527 21.8165 27.168C21.7913 27.5757 21.7636 27.8979 21.7421 28.1193C21.7313 28.23 21.7221 28.3155 21.7155 28.3739L21.7076 28.4409L21.7055 28.4588L21.7048 28.4637L21.7046 28.4656Z" fill="#38B0FF"/>
        <path fill-rule="evenodd" clip-rule="evenodd" d="M23.9254 4.5056C23.9256 4.50556 23.9258 4.50553 24 5C24.0742 5.49447 24.0743 5.49445 24.0744 5.49444C24.0744 5.49444 24.0744 5.49443 24.0744 5.49444L24.0696 5.49518L24.0507 5.49817C24.0335 5.50094 24.0071 5.5053 23.9719 5.51138C23.9015 5.52355 23.7961 5.5426 23.6596 5.56964C23.3867 5.62373 22.9897 5.70969 22.4997 5.83627C21.519 6.08963 20.1698 6.50465 18.6984 7.15021C15.7466 8.44531 12.3567 10.6444 10.4212 14.274C8.56221 17.7601 8.0118 20.875 7.92301 23.1103C7.87859 24.2287 7.94973 25.1275 8.03088 25.7425C8.07145 26.05 8.11449 26.2863 8.14677 26.4435C8.1629 26.5221 8.17634 26.5808 8.18543 26.6188C8.18997 26.6377 8.19342 26.6515 8.19558 26.6599L8.19781 26.6685C8.19776 26.6683 8.19794 26.669 7.71547 26.8003C7.233 26.9315 7.23293 26.9312 7.23286 26.931L7.23223 26.9287L7.23093 26.9238L7.2268 26.9078C7.22338 26.8945 7.21868 26.8757 7.21292 26.8516C7.20139 26.8035 7.18559 26.7341 7.16721 26.6446C7.13045 26.4656 7.08334 26.2058 7.03948 25.8733C6.95176 25.2085 6.87686 24.2523 6.9238 23.0706C7.01772 20.7059 7.59955 17.4401 9.53877 13.8035C11.6233 9.89437 15.2434 7.57406 18.2966 6.23447C19.8277 5.56269 21.2297 5.13154 22.2496 4.86806C22.7599 4.73623 23.1756 4.64611 23.4653 4.58871C23.6101 4.56001 23.7235 4.53948 23.8016 4.52599C23.8406 4.51925 23.8708 4.51426 23.8917 4.5109L23.9159 4.50705L23.9227 4.50601L23.9254 4.5056Z" fill="#38B0FF"/>
        <path fill-rule="evenodd" clip-rule="evenodd" d="M7.60793 26.9882C7.60771 26.9883 7.60752 26.9883 7.5 26.5C7.39248 26.0117 7.39235 26.0117 7.39226 26.0117L7.3962 26.0109L7.41221 26.0072C7.42691 26.0038 7.4496 25.9985 7.47991 25.9911C7.54054 25.9764 7.63163 25.9536 7.75018 25.9219C7.98732 25.8584 8.33413 25.7595 8.76666 25.6189C9.63214 25.3375 10.8385 24.8899 12.195 24.2271C14.9128 22.8992 18.2059 20.721 20.584 17.3107C22.8691 14.0335 24.1005 11.4219 24.7595 9.64174C25.0891 8.75149 25.2758 8.06851 25.3796 7.61342C25.4315 7.38586 25.4627 7.21519 25.4807 7.104C25.4897 7.04841 25.4953 7.00767 25.4986 6.98212L25.5019 6.95522L25.5024 6.95089C25.5024 6.9511 25.5024 6.95132 26 7C26.4976 7.04868 26.4976 7.04894 26.4976 7.04921L26.4974 7.05133L26.4969 7.05544L26.4956 7.068C26.4944 7.0783 26.4927 7.09245 26.4904 7.11041C26.4857 7.14632 26.4785 7.19746 26.4679 7.2635C26.4465 7.39558 26.4113 7.58722 26.3546 7.83579C26.2412 8.333 26.0421 9.05769 25.6973 9.98893C25.0077 11.8518 23.7361 14.5385 21.4042 17.8826C18.8955 21.4804 15.4416 23.7538 12.634 25.1256C11.2279 25.8126 9.97696 26.2769 9.07585 26.5699C8.62509 26.7164 8.26127 26.8203 8.0086 26.8879C7.88225 26.9217 7.78364 26.9464 7.7158 26.9629C7.68188 26.9711 7.65564 26.9773 7.63747 26.9815L7.61631 26.9863L7.61035 26.9877L7.60793 26.9882Z" fill="#38B0FF"/>
        <circle cx="2.5" cy="14.5" r="1.5" fill="#DCDFE3"/>
        <circle cx="12.5" cy="2.5" r="1.5" fill="#DCDFE3"/>
        <circle cx="23.5" cy="4.5" r="1.5" fill="#DCDFE3"/>
        <circle cx="26.5" cy="7.5" r="1.5" fill="#DCDFE3"/>
        <circle cx="27.5" cy="22.5" r="1.5" fill="#DCDFE3"/>
        <circle cx="16.5" cy="7.5" r="1.5" fill="#DCDFE3"/>
        <circle cx="20.5" cy="17.5" r="1.5" fill="#DCDFE3"/>
        <circle cx="7.5" cy="25.5" r="1.5" fill="#DCDFE3"/>
        <circle cx="21.5" cy="27.5" r="1.5" fill="#DCDFE3"/>
        <circle cx="9.5" cy="14.5" r="1.5" fill="#DCDFE3"/>
    </symbol>

    <symbol id="arrow-up">
        <path fill-rule="evenodd" clip-rule="evenodd" d="M9.38997 22.2296C9.38997 22.2296 9.39024 22.2293 8.99981 21.9169C8.60937 21.6046 8.6097 21.6042 8.6097 21.6042L8.611 21.6025L8.6135 21.5995L8.62111 21.5902C8.62735 21.5826 8.63591 21.5724 8.64681 21.5596C8.66859 21.5341 8.69971 21.4985 8.74017 21.4542C8.82105 21.3657 8.93942 21.2426 9.09533 21.0964C9.40696 20.8043 9.86995 20.4189 10.4848 20.0346C11.7165 19.2648 13.5571 18.5003 15.9998 18.5003C18.4425 18.5003 20.2831 19.2648 21.5148 20.0346C22.1297 20.4189 22.5927 20.8043 22.9043 21.0964C23.0602 21.2426 23.1786 21.3657 23.2594 21.4542C23.2999 21.4985 23.331 21.5341 23.3528 21.5596C23.3637 21.5724 23.3723 21.5826 23.3785 21.5902L23.3861 21.5995L23.3886 21.6025L23.3895 21.6037C23.3895 21.6037 23.3902 21.6046 22.9998 21.9169C22.6094 22.2293 22.6096 22.2296 22.6096 22.2296L22.6074 22.2269L22.5921 22.2087C22.5774 22.1915 22.5539 22.1645 22.5214 22.129C22.4565 22.0579 22.3561 21.9532 22.2203 21.826C21.9486 21.5712 21.5366 21.2275 20.9848 20.8826C19.8832 20.1941 18.2237 19.5003 15.9998 19.5003C13.7759 19.5003 12.1164 20.1941 11.0148 20.8826C10.463 21.2275 10.051 21.5712 9.77928 21.826C9.64352 21.9532 9.54314 22.0579 9.47819 22.129C9.44573 22.1645 9.42216 22.1915 9.40749 22.2087L9.39218 22.2269L9.38997 22.2296Z" fill="#FFFFFF"/>
        <path fill-rule="evenodd" clip-rule="evenodd" d="M15.9998 10.0549L9.44004 22.2373L8.55957 21.7632L15.9998 7.94562L23.44 21.7632L22.5596 22.2373L15.9998 10.0549Z" fill="#FFFFFF"/>
    </symbol>

    <symbol id="arrow-down">
        <path fill-rule="evenodd" clip-rule="evenodd" d="M22.61 9.77088C22.61 9.77088 22.6098 9.77122 23.0002 10.0836C23.3906 10.3959 23.3903 10.3963 23.3903 10.3963L23.389 10.3979L23.3865 10.401L23.3789 10.4103C23.3727 10.4179 23.3641 10.4281 23.3532 10.4409C23.3314 10.4664 23.3003 10.502 23.2598 10.5463C23.1789 10.6347 23.0606 10.7579 22.9047 10.9041C22.593 11.1962 22.1301 11.5816 21.5152 11.9659C20.2835 12.7357 18.4429 13.5002 16.0002 13.5002C13.5575 13.5002 11.7169 12.7357 10.4852 11.9659C9.87034 11.5816 9.40735 11.1962 9.09572 10.9041C8.93981 10.7579 8.82144 10.6347 8.74055 10.5463C8.7001 10.502 8.66898 10.4664 8.64719 10.4409C8.6363 10.4281 8.62773 10.4179 8.6215 10.4103L8.61388 10.401L8.61139 10.3979L8.61046 10.3968C8.61046 10.3968 8.60976 10.3959 9.00019 10.0836C9.39063 9.77122 9.39036 9.77088 9.39036 9.77088L9.39256 9.77356L9.40788 9.79177C9.42255 9.80896 9.44612 9.83601 9.47858 9.87151C9.54353 9.94255 9.64391 10.0473 9.77966 10.1745C10.0514 10.4293 10.4634 10.773 11.0152 11.1179C12.1168 11.8064 13.7763 12.5002 16.0002 12.5002C18.2241 12.5002 19.8836 11.8064 20.9852 11.1179C21.537 10.773 21.949 10.4293 22.2207 10.1745C22.3565 10.0473 22.4569 9.94255 22.5218 9.87151C22.5543 9.83601 22.5778 9.80896 22.5925 9.79177L22.6078 9.77356L22.61 9.77088Z" fill="#FFFFFF"/>
        <path fill-rule="evenodd" clip-rule="evenodd" d="M16.0002 21.9456L22.56 9.76319L23.4404 10.2373L16.0002 24.0549L8.55996 10.2373L9.44043 9.76318L16.0002 21.9456Z" fill="#FFFFFF"/>
    </symbol>

    <!-- Gradient -->
    <symbol id="equilizer">
        <g transform="rotate(180 50 50)">
            <rect x="6" y="20" width="8" height="0.2">
            <animate attributeName="height" calcMode="spline" values="25;37.5;5;25" times="0;0.33;0.66;1" dur="1s" keySplines="0.5 0 0.5 1;0.5 0 0.5 1;0.5 0 0.5 1" repeatCount="indefinite" begin="-0.6666666666666666s"></animate>
            </rect>
            <rect x="22" y="20" width="8" height="0.2">
            <animate attributeName="height" calcMode="spline" values="25;37.5;5;25" times="0;0.33;0.66;1" dur="1s" keySplines="0.5 0 0.5 1;0.5 0 0.5 1;0.5 0 0.5 1" repeatCount="indefinite" begin="-0.3333333333333333s"></animate>
            </rect>
            <rect x="38" y="20" width="8" height="0.2">
            <animate attributeName="height" calcMode="spline" values="25;37.5;5;25" times="0;0.33;0.66;1" dur="1s" keySplines="0.5 0 0.5 1;0.5 0 0.5 1;0.5 0 0.5 1" repeatCount="indefinite" begin="-0.8333333333333334s"></animate>
            </rect>
            <rect x="54" y="20" width="8" height="0.2">
            <animate attributeName="height" calcMode="spline" values="25;37.5;5;25" times="0;0.33;0.66;1" dur="1s" keySplines="0.5 0 0.5 1;0.5 0 0.5 1;0.5 0 0.5 1" repeatCount="indefinite" begin="-0.16666666666666666s"></animate>
            </rect>
            <rect x="70" y="20" width="8" height="0.2">
            <animate attributeName="height" calcMode="spline" values="25;37.5;5;25" times="0;0.33;0.66;1" dur="1s" keySplines="0.5 0 0.5 1;0.5 0 0.5 1;0.5 0 0.5 1" repeatCount="indefinite" ></animate>
            </rect>
            <rect x="86" y="20" width="8" height="0.2">
            <animate attributeName="height" calcMode="spline" values="25;37.5;5;25" times="0;0.33;0.66;1" dur="1s" keySplines="0.5 0 0.5 1;0.5 0 0.5 1;0.5 0 0.5 1" repeatCount="indefinite" begin="-0.5s"></animate>
            </rect>
        </g>
    </symbol>


</svg>