<svg width="90" height="56" viewBox="0 0 90 56" fill="none" xmlns="http://www.w3.org/2000/svg">
<g filter="url(#filter0_b_253_216)">
<rect width="90" height="56" rx="28" fill="#DCDFE3" fill-opacity="0.95"/>
</g>
<path d="M24 33.2V22H27.68C28.5547 22 29.2747 22.144 29.84 22.432C30.4053 22.72 30.8213 23.1093 31.088 23.6C31.3653 24.0907 31.504 24.6453 31.504 25.264C31.504 25.872 31.3707 26.4213 31.104 26.912C30.8373 27.4027 30.4213 27.7973 29.856 28.096C29.2907 28.384 28.5653 28.528 27.68 28.528H25.344V33.2H24ZM25.344 27.392H27.648C28.544 27.392 29.1787 27.2053 29.552 26.832C29.936 26.448 30.128 25.9253 30.128 25.264C30.128 24.592 29.936 24.0693 29.552 23.696C29.1787 23.312 28.544 23.12 27.648 23.12H25.344V27.392Z" fill="white"/>
<path d="M35.4506 33.392C34.7893 33.392 34.24 33.28 33.8026 33.056C33.3653 32.832 33.04 32.5333 32.8266 32.16C32.6133 31.7867 32.5066 31.3813 32.5066 30.944C32.5066 30.1333 32.816 29.5093 33.4346 29.072C34.0533 28.6347 34.896 28.416 35.9626 28.416H38.1066V28.32C38.1066 27.6267 37.9253 27.104 37.5626 26.752C37.2 26.3893 36.7146 26.208 36.1066 26.208C35.584 26.208 35.1306 26.3413 34.7466 26.608C34.3733 26.864 34.1386 27.2427 34.0426 27.744H32.6666C32.72 27.168 32.912 26.6827 33.2426 26.288C33.584 25.8933 34.0053 25.5947 34.5066 25.392C35.008 25.1787 35.5413 25.072 36.1066 25.072C37.216 25.072 38.048 25.3707 38.6026 25.968C39.168 26.5547 39.4506 27.3387 39.4506 28.32V33.2H38.2506L38.1706 31.776C37.9466 32.224 37.616 32.608 37.1786 32.928C36.752 33.2373 36.176 33.392 35.4506 33.392ZM35.6586 32.256C36.1706 32.256 36.608 32.1227 36.9706 31.856C37.344 31.5893 37.6266 31.2427 37.8186 30.816C38.0106 30.3893 38.1066 29.9413 38.1066 29.472V29.456H36.0746C35.2853 29.456 34.7253 29.5947 34.3946 29.872C34.0746 30.1387 33.9146 30.4747 33.9146 30.88C33.9146 31.296 34.064 31.632 34.3626 31.888C34.672 32.1333 35.104 32.256 35.6586 32.256Z" fill="white"/>
<path d="M44.3629 33.392C43.4242 33.392 42.6775 33.1093 42.1229 32.544C41.5682 31.968 41.2909 31.088 41.2909 29.904V25.264H42.6349V29.76C42.6349 31.4133 43.3122 32.24 44.6669 32.24C45.3602 32.24 45.9309 31.9947 46.3789 31.504C46.8375 31.0027 47.0669 30.2933 47.0669 29.376V25.264H48.4109V33.2H47.1949L47.0989 31.776C46.8535 32.2773 46.4855 32.672 45.9949 32.96C45.5149 33.248 44.9709 33.392 44.3629 33.392Z" fill="white"/>
<path d="M53.6631 33.392C52.7138 33.392 51.9245 33.152 51.2951 32.672C50.6658 32.192 50.2978 31.5413 50.1911 30.72H51.5671C51.6525 31.136 51.8711 31.4987 52.2231 31.808C52.5858 32.1067 53.0711 32.256 53.6791 32.256C54.2445 32.256 54.6605 32.1387 54.9271 31.904C55.1938 31.6587 55.3271 31.3707 55.3271 31.04C55.3271 30.56 55.1511 30.24 54.7991 30.08C54.4578 29.92 53.9725 29.776 53.3431 29.648C52.9165 29.5627 52.4898 29.44 52.0631 29.28C51.6365 29.12 51.2791 28.896 50.9911 28.608C50.7031 28.3093 50.5591 27.92 50.5591 27.44C50.5591 26.7467 50.8151 26.1813 51.3271 25.744C51.8498 25.296 52.5538 25.072 53.4391 25.072C54.2818 25.072 54.9698 25.2853 55.5031 25.712C56.0471 26.128 56.3618 26.7253 56.4471 27.504H55.1191C55.0658 27.0987 54.8898 26.784 54.5911 26.56C54.3031 26.3253 53.9138 26.208 53.4231 26.208C52.9431 26.208 52.5698 26.3093 52.3031 26.512C52.0471 26.7147 51.9191 26.9813 51.9191 27.312C51.9191 27.632 52.0845 27.8827 52.4151 28.064C52.7565 28.2453 53.2151 28.4 53.7911 28.528C54.2818 28.6347 54.7458 28.768 55.1831 28.928C55.6311 29.0773 55.9938 29.3067 56.2711 29.616C56.5591 29.9147 56.7031 30.352 56.7031 30.928C56.7138 31.6427 56.4418 32.2347 55.8871 32.704C55.3431 33.1627 54.6018 33.392 53.6631 33.392Z" fill="white"/>
<path d="M62.1911 33.392C61.4338 33.392 60.7618 33.2213 60.1751 32.88C59.5885 32.528 59.1245 32.0427 58.7831 31.424C58.4525 30.8053 58.2871 30.0747 58.2871 29.232C58.2871 28.4 58.4525 27.6747 58.7831 27.056C59.1138 26.4267 59.5725 25.9413 60.1591 25.6C60.7565 25.248 61.4445 25.072 62.2231 25.072C62.9911 25.072 63.6525 25.248 64.2071 25.6C64.7725 25.9413 65.2045 26.3947 65.5031 26.96C65.8018 27.5253 65.9511 28.1333 65.9511 28.784C65.9511 28.9013 65.9458 29.0187 65.9351 29.136C65.9351 29.2533 65.9351 29.3867 65.9351 29.536H59.6151C59.6471 30.144 59.7858 30.6507 60.0311 31.056C60.2871 31.4507 60.6018 31.7493 60.9751 31.952C61.3591 32.1547 61.7645 32.256 62.1911 32.256C62.7458 32.256 63.2098 32.128 63.5831 31.872C63.9565 31.616 64.2285 31.2693 64.3991 30.832H65.7271C65.5138 31.568 65.1031 32.1813 64.4951 32.672C63.8978 33.152 63.1298 33.392 62.1911 33.392ZM62.1911 26.208C61.5511 26.208 60.9805 26.4053 60.4791 26.8C59.9885 27.184 59.7058 27.7493 59.6311 28.496H64.6231C64.5911 27.7813 64.3458 27.2213 63.8871 26.816C63.4285 26.4107 62.8631 26.208 62.1911 26.208Z" fill="white"/>
<defs>
<filter id="filter0_b_253_216" x="-8" y="-8" width="106" height="72" filterUnits="userSpaceOnUse" color-interpolation-filters="sRGB">
<feFlood flood-opacity="0" result="BackgroundImageFix"/>
<feGaussianBlur in="BackgroundImage" stdDeviation="4"/>
<feComposite in2="SourceAlpha" operator="in" result="effect1_backgroundBlur_253_216"/>
<feBlend mode="normal" in="SourceGraphic" in2="effect1_backgroundBlur_253_216" result="shape"/>
</filter>
</defs>
</svg>
