<svg width="90" height="56" viewBox="0 0 90 56" fill="none" xmlns="http://www.w3.org/2000/svg">
<g filter="url(#filter0_b_253_213)">
<rect width="90" height="56" rx="28" fill="#5AA9DD" fill-opacity="0.95"/>
</g>
<path d="M31 33.0005V21.8005H34.68C35.5547 21.8005 36.2747 21.9445 36.84 22.2325C37.4053 22.5205 37.8213 22.9098 38.088 23.4005C38.3653 23.8911 38.504 24.4458 38.504 25.0645C38.504 25.6725 38.3707 26.2218 38.104 26.7125C37.8373 27.2031 37.4213 27.5978 36.856 27.8965C36.2907 28.1845 35.5653 28.3285 34.68 28.3285H32.344V33.0005H31ZM32.344 27.1925H34.648C35.544 27.1925 36.1787 27.0058 36.552 26.6325C36.936 26.2485 37.128 25.7258 37.128 25.0645C37.128 24.3925 36.936 23.8698 36.552 23.4965C36.1787 23.1125 35.544 22.9205 34.648 22.9205H32.344V27.1925Z" fill="white"/>
<path d="M40.1856 33.0005V21.4805H41.5296V33.0005H40.1856Z" fill="white"/>
<path d="M46.3725 33.1925C45.7112 33.1925 45.1618 33.0805 44.7245 32.8565C44.2872 32.6325 43.9618 32.3338 43.7485 31.9605C43.5352 31.5871 43.4285 31.1818 43.4285 30.7445C43.4285 29.9338 43.7378 29.3098 44.3565 28.8725C44.9752 28.4351 45.8178 28.2165 46.8845 28.2165H49.0285V28.1205C49.0285 27.4271 48.8472 26.9045 48.4845 26.5525C48.1218 26.1898 47.6365 26.0085 47.0285 26.0085C46.5058 26.0085 46.0525 26.1418 45.6685 26.4085C45.2952 26.6645 45.0605 27.0431 44.9645 27.5445H43.5885C43.6418 26.9685 43.8338 26.4831 44.1645 26.0885C44.5058 25.6938 44.9272 25.3951 45.4285 25.1925C45.9298 24.9791 46.4632 24.8725 47.0285 24.8725C48.1378 24.8725 48.9698 25.1711 49.5245 25.7685C50.0898 26.3551 50.3725 27.1391 50.3725 28.1205V33.0005H49.1725L49.0925 31.5765C48.8685 32.0245 48.5378 32.4085 48.1005 32.7285C47.6738 33.0378 47.0978 33.1925 46.3725 33.1925ZM46.5805 32.0565C47.0925 32.0565 47.5298 31.9231 47.8925 31.6565C48.2658 31.3898 48.5485 31.0431 48.7405 30.6165C48.9325 30.1898 49.0285 29.7418 49.0285 29.2725V29.2565H46.9965C46.2072 29.2565 45.6472 29.3951 45.3165 29.6725C44.9965 29.9391 44.8365 30.2751 44.8365 30.6805C44.8365 31.0965 44.9858 31.4325 45.2845 31.6885C45.5938 31.9338 46.0258 32.0565 46.5805 32.0565Z" fill="white"/>
<path d="M53.0184 36.5205L54.9864 32.2325H54.5224L51.3704 25.0645H52.8264L55.4504 31.2405L58.2344 25.0645H59.6264L54.4264 36.5205H53.0184Z" fill="white"/>
<defs>
<filter id="filter0_b_253_213" x="-8" y="-8" width="106" height="72" filterUnits="userSpaceOnUse" color-interpolation-filters="sRGB">
<feFlood flood-opacity="0" result="BackgroundImageFix"/>
<feGaussianBlur in="BackgroundImage" stdDeviation="4"/>
<feComposite in2="SourceAlpha" operator="in" result="effect1_backgroundBlur_253_213"/>
<feBlend mode="normal" in="SourceGraphic" in2="effect1_backgroundBlur_253_213" result="shape"/>
</filter>
</defs>
</svg>
