{
	"accessors":[{
		"bufferView":0,
		"type":"SCALAR",
		"min":[0],
		"componentType":5123,
		"count":36,
		"byteOffset":0,
		"max":[23]
	},
	{
		"bufferView":1,
		"type":"VEC3",
		"min":[-9.472764015197754,
		-9.472764015197754,
		-9.472764015197754],
		"componentType":5126,
		"count":24,
		"byteOffset":0,
		"max":[9.472764015197754,
		9.472764015197754,
		9.472764015197754]
	},
	{
		"bufferView":1,
		"type":"VEC3",
		"min":[-1.0,
		-1.0,
		-1.0],
		"componentType":5126,
		"count":24,
		"byteOffset":12,
		"max":[1.0,
		1.0,
		1.0]
	},
	{
		"bufferView":1,
		"type":"VEC2",
		"min":[0.0,
		0.0],
		"componentType":5126,
		"count":24,
		"byteOffset":24,
		"max":[1.0,
		1.0]
	},
	{
		"bufferView":2,
		"type":"SCALAR",
		"min":[0],
		"componentType":5123,
		"count":2964,
		"byteOffset":0,
		"max":[1031]
	},
	{
		"bufferView":3,
		"type":"VEC3",
		"min":[-3.0216691493988039,
		-2.579045295715332,
		-1.8482046127319337],
		"componentType":5126,
		"count":1032,
		"byteOffset":0,
		"max":[3.0957210063934328,
		1.18632173538208,
		-1.3758177757263184]
	},
	{
		"bufferView":3,
		"type":"VEC3",
		"min":[-1.0,
		-1.0,
		-1.0],
		"componentType":5126,
		"count":1032,
		"byteOffset":12,
		"max":[1.0,
		0.9999472498893738,
		1.0]
	},
	{
		"bufferView":3,
		"type":"VEC2",
		"min":[0.0,
		0.0],
		"componentType":5126,
		"count":1032,
		"byteOffset":24,
		"max":[1.0,
		1.0]
	},
	{
		"bufferView":4,
		"type":"SCALAR",
		"min":[0],
		"componentType":5123,
		"count":3072,
		"byteOffset":0,
		"max":[560]
	},
	{
		"bufferView":5,
		"type":"VEC3",
		"min":[-24.175935745239259,
		-2.087968111038208,
		-24.175935745239259],
		"componentType":5126,
		"count":561,
		"byteOffset":0,
		"max":[24.175935745239259,
		2.087968111038208,
		24.175935745239259]
	},
	{
		"bufferView":5,
		"type":"VEC3",
		"min":[-1.0,
		-0.9999786615371704,
		-1.0],
		"componentType":5126,
		"count":561,
		"byteOffset":12,
		"max":[1.0,
		0.9999786615371704,
		1.0]
	},
	{
		"bufferView":5,
		"type":"VEC2",
		"min":[0.0,
		0.0],
		"componentType":5126,
		"count":561,
		"byteOffset":24,
		"max":[1.0,
		1.0]
	},
	{
		"bufferView":6,
		"type":"SCALAR",
		"min":[0],
		"componentType":5123,
		"count":15120,
		"byteOffset":0,
		"max":[2626]
	},
	{
		"bufferView":7,
		"type":"VEC3",
		"min":[24.146682739257814,
		-0.13003578782081605,
		-0.30000001192092898],
		"componentType":5126,
		"count":2627,
		"byteOffset":0,
		"max":[30.658185958862306,
		18.32356834411621,
		0.30000001192092898]
	},
	{
		"bufferView":7,
		"type":"VEC3",
		"min":[-0.9997158050537109,
		-0.9999998807907105,
		-0.9999998211860657],
		"componentType":5126,
		"count":2627,
		"byteOffset":12,
		"max":[0.9997158646583557,
		0.9999999403953552,
		0.9999998211860657]
	},
	{
		"bufferView":7,
		"type":"VEC2",
		"min":[0.0,
		0.0],
		"componentType":5126,
		"count":2627,
		"byteOffset":24,
		"max":[1.0,
		1.0]
	},
	{
		"bufferView":8,
		"type":"SCALAR",
		"min":[0],
		"componentType":5123,
		"count":672,
		"byteOffset":0,
		"max":[150]
	},
	{
		"bufferView":9,
		"type":"VEC3",
		"min":[-1.4303706884384156,
		-1.4303706884384156,
		-1.4303706884384156],
		"componentType":5126,
		"count":151,
		"byteOffset":0,
		"max":[1.4303706884384156,
		1.4303706884384156,
		1.4303706884384156]
	},
	{
		"bufferView":9,
		"type":"VEC3",
		"min":[-0.9999999403953552,
		-1.0,
		-0.9999999403953552],
		"componentType":5126,
		"count":151,
		"byteOffset":12,
		"max":[0.9999999403953552,
		1.0,
		0.9999999403953552]
	},
	{
		"bufferView":9,
		"type":"VEC2",
		"min":[0.0,
		0.0],
		"componentType":5126,
		"count":151,
		"byteOffset":24,
		"max":[1.0,
		1.0]
	},
	{
		"bufferView":10,
		"type":"SCALAR",
		"min":[0],
		"componentType":5123,
		"count":510,
		"byteOffset":0,
		"max":[132]
	},
	{
		"bufferView":11,
		"type":"VEC3",
		"min":[-6.872389316558838,
		-0.874936044216156,
		-6.872389316558838],
		"componentType":5126,
		"count":133,
		"byteOffset":0,
		"max":[6.872389316558838,
		0.874936044216156,
		0.0]
	},
	{
		"bufferView":11,
		"type":"VEC3",
		"min":[-0.9951847791671753,
		-1.0,
		-1.0],
		"componentType":5126,
		"count":133,
		"byteOffset":12,
		"max":[0.9951847791671753,
		1.0,
		1.0]
	},
	{
		"bufferView":11,
		"type":"VEC2",
		"min":[0.0,
		0.0],
		"componentType":5126,
		"count":133,
		"byteOffset":24,
		"max":[1.0,
		1.0]
	},
	{
		"bufferView":12,
		"type":"SCALAR",
		"min":[0],
		"componentType":5123,
		"count":480,
		"byteOffset":0,
		"max":[118]
	},
	{
		"bufferView":13,
		"type":"VEC3",
		"min":[-1.0,
		-29.1094970703125,
		-1.0],
		"componentType":5126,
		"count":119,
		"byteOffset":0,
		"max":[1.0,
		29.1094970703125,
		1.0]
	},
	{
		"bufferView":13,
		"type":"VEC3",
		"min":[-1.0,
		-1.0,
		-1.0],
		"componentType":5126,
		"count":119,
		"byteOffset":12,
		"max":[1.0,
		1.0,
		1.0]
	},
	{
		"bufferView":13,
		"type":"VEC2",
		"min":[0.0,
		0.0],
		"componentType":5126,
		"count":119,
		"byteOffset":24,
		"max":[1.0,
		1.0]
	},
	{
		"bufferView":14,
		"type":"SCALAR",
		"min":[0],
		"componentType":5123,
		"count":36,
		"byteOffset":0,
		"max":[23]
	},
	{
		"bufferView":15,
		"type":"VEC3",
		"min":[-9.928234100341797,
		-2.915276527404785,
		-8.562163352966309],
		"componentType":5126,
		"count":24,
		"byteOffset":0,
		"max":[9.928234100341797,
		2.915276527404785,
		8.562163352966309]
	},
	{
		"bufferView":15,
		"type":"VEC3",
		"min":[-1.0,
		-1.0,
		-1.0],
		"componentType":5126,
		"count":24,
		"byteOffset":12,
		"max":[1.0,
		1.0,
		1.0]
	},
	{
		"bufferView":15,
		"type":"VEC2",
		"min":[0.0,
		0.0],
		"componentType":5126,
		"count":24,
		"byteOffset":24,
		"max":[1.0,
		1.0]
	}],
	"nodes":[{
		"name":"Null.3",
		"children":[1]
	},
	{
		"name":"Null.4",
		"children":[2,
		3,
		4,
		5,
		6,
		7,
		8,
		9]
	},
	{
		"name":"Cube",
		"translation":[6.434458255767822,
		9.424286842346192,
		0.0026638004928827287],
		"rotation":[0.0,
		0.0,
		0.0,
		-1.0],
		"scale":[1.0,
		1.0,
		1.0],
		"mesh":0
	},
	{
		"name":"Extrude",
		"translation":[2.1815524101257326,
		-23.672260284423829,
		0.795809805393219],
		"rotation":[0.0,
		0.0,
		0.0,
		-1.0],
		"scale":[1.0,
		1.0,
		1.0],
		"mesh":1
	},
	{
		"name":"Torus",
		"translation":[5.831954479217529,
		9.323731422424317,
		0.0026638004928827287],
		"rotation":[0.0,
		0.0,
		0.3883266746997833,
		-0.921521782875061],
		"scale":[1.0,
		1.0,
		1.0],
		"mesh":2
	},
	{
		"name":"Sweep",
		"translation":[-35.09748458862305,
		13.526928901672364,
		0.0026638004928827287],
		"rotation":[-0.005948527716100216,
		0.007759424392133951,
		0.1087445616722107,
		0.9940216541290283],
		"scale":[1.0,
		1.0,
		1.0],
		"mesh":3
	},
	{
		"name":"Sphere",
		"translation":[-10.930499076843262,
		34.3685417175293,
		0.0026638004928827287],
		"rotation":[0.0,
		0.0,
		0.0,
		-1.0],
		"scale":[1.0,
		1.0,
		1.0],
		"mesh":4
	},
	{
		"name":"Cylinder",
		"translation":[4.570774078369141,
		-10.151200294494629,
		0.0026638004928827287],
		"rotation":[-0.07300693541765213,
		-0.7115179896354675,
		0.528482973575592,
		-0.4572940766811371],
		"scale":[1.0,
		1.0,
		1.0],
		"mesh":5
	},
	{
		"name":"Cylinder",
		"translation":[11.210108757019043,
		-11.357086181640625,
		-0.0186466034501791],
		"rotation":[0.0,
		0.0,
		0.4163440465927124,
		-0.9092071652412415],
		"scale":[1.0,
		1.0,
		1.0],
		"mesh":6
	},
	{
		"name":"Cube",
		"translation":[6.7520294189453129,
		-29.26999855041504,
		0.0026638004928827287],
		"rotation":[0.0,
		0.0,
		0.0,
		-1.0],
		"scale":[1.0,
		1.0,
		1.0],
		"mesh":7
	}],
	"asset":{
		"version":"2.0",
		"generator":"Created using the official Cinema 4D glTF Exporter 1.000x284978"
	},
	"scenes":[{
		"nodes":[0]
	}],
	"meshes":[{
		"name":"Cube",
		"primitives":[{
			"attributes":{
				"POSITION":1,
				"NORMAL":2,
				"TEXCOORD_0":3
			},
			"indices":0
		}]
	},
	{
		"name":"Extrude",
		"primitives":[{
			"attributes":{
				"POSITION":5,
				"NORMAL":6,
				"TEXCOORD_0":7
			},
			"indices":4
		}]
	},
	{
		"name":"Torus",
		"primitives":[{
			"attributes":{
				"POSITION":9,
				"NORMAL":10,
				"TEXCOORD_0":11
			},
			"indices":8
		}]
	},
	{
		"name":"Sweep",
		"primitives":[{
			"attributes":{
				"POSITION":13,
				"NORMAL":14,
				"TEXCOORD_0":15
			},
			"indices":12
		}]
	},
	{
		"name":"Sphere",
		"primitives":[{
			"attributes":{
				"POSITION":17,
				"NORMAL":18,
				"TEXCOORD_0":19
			},
			"indices":16
		}]
	},
	{
		"name":"Cylinder",
		"primitives":[{
			"attributes":{
				"POSITION":21,
				"NORMAL":22,
				"TEXCOORD_0":23
			},
			"indices":20
		}]
	},
	{
		"name":"Cylinder",
		"primitives":[{
			"attributes":{
				"POSITION":25,
				"NORMAL":26,
				"TEXCOORD_0":27
			},
			"indices":24
		}]
	},
	{
		"name":"Cube",
		"primitives":[{
			"attributes":{
				"POSITION":29,
				"NORMAL":30,
				"TEXCOORD_0":31
			},
			"indices":28
		}]
	}],
	"bufferViews":[{
		"buffer":0,
		"byteOffset":0,
		"byteLength":72,
		"target":34963
	},
	{
		"buffer":0,
		"byteOffset":72,
		"byteLength":768,
		"target":34962,
		"byteStride":32
	},
	{
		"buffer":1,
		"byteOffset":0,
		"byteLength":5928,
		"target":34963
	},
	{
		"buffer":1,
		"byteOffset":5928,
		"byteLength":33024,
		"target":34962,
		"byteStride":32
	},
	{
		"buffer":2,
		"byteOffset":0,
		"byteLength":6144,
		"target":34963
	},
	{
		"buffer":2,
		"byteOffset":6144,
		"byteLength":17952,
		"target":34962,
		"byteStride":32
	},
	{
		"buffer":3,
		"byteOffset":0,
		"byteLength":30240,
		"target":34963
	},
	{
		"buffer":3,
		"byteOffset":30240,
		"byteLength":84064,
		"target":34962,
		"byteStride":32
	},
	{
		"buffer":4,
		"byteOffset":0,
		"byteLength":1344,
		"target":34963
	},
	{
		"buffer":4,
		"byteOffset":1344,
		"byteLength":4832,
		"target":34962,
		"byteStride":32
	},
	{
		"buffer":5,
		"byteOffset":0,
		"byteLength":1020,
		"target":34963
	},
	{
		"buffer":5,
		"byteOffset":1020,
		"byteLength":4256,
		"target":34962,
		"byteStride":32
	},
	{
		"buffer":6,
		"byteOffset":0,
		"byteLength":960,
		"target":34963
	},
	{
		"buffer":6,
		"byteOffset":960,
		"byteLength":3808,
		"target":34962,
		"byteStride":32
	},
	{
		"buffer":7,
		"byteOffset":0,
		"byteLength":72,
		"target":34963
	},
	{
		"buffer":7,
		"byteOffset":72,
		"byteLength":768,
		"target":34962,
		"byteStride":32
	}],
	"buffers":[{
		"uri":"data:application/octet-stream;base64,",
		"byteLength":840
	},
	{
		"uri":"data:application/octet-stream;base64,",
		"byteLength":38952
	},
	{
		"uri":"data:application/octet-stream;base64,",
		"byteLength":24096
	},
	{
		"uri":"data:application/octet-stream;base64,",
		"byteLength":114304
	},
	{
		"uri":"data:application/octet-stream;base64,",
		"byteLength":6176
	},
	{
		"uri":"data:application/octet-stream;base64,",
		"byteLength":5276
	},
	{
		"uri":"data:application/octet-stream;base64,",
		"byteLength":4768
	},
	{
		"uri":"data:application/octet-stream;base64,",
		"byteLength":840
	}]
}