{
	"accessors":[{
		"bufferView":0,
		"type":"SCALAR",
		"min":[0],
		"componentType":5123,
		"count":2964,
		"byteOffset":0,
		"max":[1031]
	},
	{
		"bufferView":1,
		"type":"VEC3",
		"min":[-3.0216691493988039,
		-2.579045295715332,
		-1.8482046127319337],
		"componentType":5126,
		"count":1032,
		"byteOffset":0,
		"max":[3.0957210063934328,
		1.18632173538208,
		-1.3758177757263184]
	},
	{
		"bufferView":1,
		"type":"VEC3",
		"min":[-1.0,
		-1.0,
		-1.0],
		"componentType":5126,
		"count":1032,
		"byteOffset":12,
		"max":[1.0,
		0.9999472498893738,
		1.0]
	},
	{
		"bufferView":1,
		"type":"VEC2",
		"min":[0.0,
		0.0],
		"componentType":5126,
		"count":1032,
		"byteOffset":24,
		"max":[1.0,
		1.0]
	},
	{
		"bufferView":2,
		"type":"SCALAR",
		"min":[0],
		"componentType":5123,
		"count":480,
		"byteOffset":0,
		"max":[118]
	},
	{
		"bufferView":3,
		"type":"VEC3",
		"min":[-5.074854850769043,
		-0.40195366740226748,
		-5.074854850769043],
		"componentType":5126,
		"count":119,
		"byteOffset":0,
		"max":[5.074854850769043,
		0.40195366740226748,
		5.074854850769043]
	},
	{
		"bufferView":3,
		"type":"VEC3",
		"min":[-1.0,
		-1.0,
		-1.0],
		"componentType":5126,
		"count":119,
		"byteOffset":12,
		"max":[1.0,
		1.0,
		1.0]
	},
	{
		"bufferView":3,
		"type":"VEC2",
		"min":[0.0,
		0.0],
		"componentType":5126,
		"count":119,
		"byteOffset":24,
		"max":[1.0,
		1.0]
	},
	{
		"bufferView":4,
		"type":"SCALAR",
		"min":[0],
		"componentType":5123,
		"count":15120,
		"byteOffset":0,
		"max":[2626]
	},
	{
		"bufferView":5,
		"type":"VEC3",
		"min":[-2.267954111099243,
		-10.917695999145508,
		0.3094237148761749],
		"componentType":5126,
		"count":2627,
		"byteOffset":0,
		"max":[4.243549346923828,
		7.53590726852417,
		0.9094237089157105]
	},
	{
		"bufferView":5,
		"type":"VEC3",
		"min":[-0.9997158646583557,
		-1.0,
		-0.9999997019767761],
		"componentType":5126,
		"count":2627,
		"byteOffset":12,
		"max":[0.9997158050537109,
		0.9999999403953552,
		0.9999997615814209]
	},
	{
		"bufferView":5,
		"type":"VEC2",
		"min":[0.0,
		0.0],
		"componentType":5126,
		"count":2627,
		"byteOffset":24,
		"max":[1.0,
		1.0]
	},
	{
		"bufferView":6,
		"type":"SCALAR",
		"min":[0],
		"componentType":5123,
		"count":18,
		"byteOffset":0,
		"max":[15]
	},
	{
		"bufferView":7,
		"type":"VEC3",
		"min":[-2.23635196685791,
		-12.675715446472168,
		-3.6573479175567629],
		"componentType":5126,
		"count":16,
		"byteOffset":0,
		"max":[2.23635196685791,
		12.675715446472168,
		3.6573479175567629]
	},
	{
		"bufferView":7,
		"type":"VEC3",
		"min":[-0.9961316585540772,
		-1.0,
		-0.9897533655166626],
		"componentType":5126,
		"count":16,
		"byteOffset":12,
		"max":[0.9961316585540772,
		0.14278769493103028,
		0.9897533655166626]
	},
	{
		"bufferView":7,
		"type":"VEC2",
		"min":[0.0,
		0.0],
		"componentType":5126,
		"count":16,
		"byteOffset":24,
		"max":[1.0,
		1.0]
	},
	{
		"bufferView":8,
		"type":"SCALAR",
		"min":[0.0],
		"componentType":5126,
		"count":5,
		"byteOffset":0,
		"max":[8.0]
	},
	{
		"bufferView":8,
		"type":"VEC4",
		"min":[0.0,
		-0.9556307792663574,
		0.0,
		-0.955630362033844],
		"componentType":5126,
		"count":5,
		"byteOffset":20,
		"max":[0.0,
		0.2945685088634491,
		0.0,
		0.9556311964988709]
	},
	{
		"bufferView":9,
		"type":"SCALAR",
		"min":[0],
		"componentType":5123,
		"count":24,
		"byteOffset":0,
		"max":[23]
	},
	{
		"bufferView":10,
		"type":"VEC3",
		"min":[-2.0292510986328127,
		-2.0292510986328127,
		-2.0292510986328127],
		"componentType":5126,
		"count":24,
		"byteOffset":0,
		"max":[2.0292510986328127,
		2.0292510986328127,
		2.0292510986328127]
	},
	{
		"bufferView":10,
		"type":"VEC3",
		"min":[-0.5773502588272095,
		-0.5773502588272095,
		-0.5773502588272095],
		"componentType":5126,
		"count":24,
		"byteOffset":12,
		"max":[0.5773502588272095,
		0.5773502588272095,
		0.5773502588272095]
	},
	{
		"bufferView":10,
		"type":"VEC2",
		"min":[0.0,
		0.0],
		"componentType":5126,
		"count":24,
		"byteOffset":24,
		"max":[1.0,
		0.8669999837875366]
	},
	{
		"bufferView":11,
		"type":"SCALAR",
		"min":[0],
		"componentType":5123,
		"count":60,
		"byteOffset":0,
		"max":[59]
	},
	{
		"bufferView":12,
		"type":"VEC3",
		"min":[-1.7261868715286255,
		-1.7261868715286255,
		-1.7261868715286255],
		"componentType":5126,
		"count":60,
		"byteOffset":0,
		"max":[1.7261868715286255,
		1.7261868715286255,
		1.7261868715286255]
	},
	{
		"bufferView":12,
		"type":"VEC3",
		"min":[-0.9341723322868347,
		-0.9341723322868347,
		-0.9341723322868347],
		"componentType":5126,
		"count":60,
		"byteOffset":12,
		"max":[0.9341723322868347,
		0.9341723322868347,
		0.9341723322868347]
	},
	{
		"bufferView":12,
		"type":"VEC2",
		"min":[0.0,
		0.0],
		"componentType":5126,
		"count":60,
		"byteOffset":24,
		"max":[1.0,
		0.8659999370574951]
	},
	{
		"bufferView":13,
		"type":"SCALAR",
		"min":[0],
		"componentType":5123,
		"count":1008,
		"byteOffset":0,
		"max":[257]
	},
	{
		"bufferView":14,
		"type":"VEC3",
		"min":[-18.74207878112793,
		-1.1432522535324097,
		-18.74207878112793],
		"componentType":5126,
		"count":258,
		"byteOffset":0,
		"max":[18.74207878112793,
		1.1432522535324097,
		0.0]
	},
	{
		"bufferView":14,
		"type":"VEC3",
		"min":[-0.9951847791671753,
		-1.0,
		-1.0],
		"componentType":5126,
		"count":258,
		"byteOffset":12,
		"max":[0.9951847791671753,
		1.0,
		1.0]
	},
	{
		"bufferView":14,
		"type":"VEC2",
		"min":[0.0,
		0.0],
		"componentType":5126,
		"count":258,
		"byteOffset":24,
		"max":[1.0,
		1.0]
	},
	{
		"bufferView":15,
		"type":"SCALAR",
		"min":[0],
		"componentType":5123,
		"count":36,
		"byteOffset":0,
		"max":[23]
	},
	{
		"bufferView":16,
		"type":"VEC3",
		"min":[-31.11508560180664,
		-1.1737180948257447,
		-1.4626847505569459],
		"componentType":5126,
		"count":24,
		"byteOffset":0,
		"max":[31.11508560180664,
		1.1737180948257447,
		1.4626847505569459]
	},
	{
		"bufferView":16,
		"type":"VEC3",
		"min":[-1.0,
		-1.0,
		-1.0],
		"componentType":5126,
		"count":24,
		"byteOffset":12,
		"max":[1.0,
		1.0,
		1.0]
	},
	{
		"bufferView":16,
		"type":"VEC2",
		"min":[0.0,
		0.0],
		"componentType":5126,
		"count":24,
		"byteOffset":24,
		"max":[1.0,
		1.0]
	},
	{
		"bufferView":17,
		"type":"SCALAR",
		"min":[0],
		"componentType":5123,
		"count":36,
		"byteOffset":0,
		"max":[23]
	},
	{
		"bufferView":18,
		"type":"VEC3",
		"min":[-11.81522274017334,
		-3.992997884750366,
		-9.835430145263672],
		"componentType":5126,
		"count":24,
		"byteOffset":0,
		"max":[11.81522274017334,
		3.992997884750366,
		9.835430145263672]
	},
	{
		"bufferView":18,
		"type":"VEC3",
		"min":[-1.0,
		-1.0,
		-1.0],
		"componentType":5126,
		"count":24,
		"byteOffset":12,
		"max":[1.0,
		1.0,
		1.0]
	},
	{
		"bufferView":18,
		"type":"VEC2",
		"min":[0.0,
		0.0],
		"componentType":5126,
		"count":24,
		"byteOffset":24,
		"max":[1.0,
		1.0]
	}],
	"nodes":[{
		"name":"Null.1",
		"children":[1,
		2]
	},
	{
		"name":"Extrude",
		"translation":[12.88293743133545,
		-2.1251542568206789,
		0.3934990465641022],
		"rotation":[0.0,
		-0.30085328221321108,
		0.0,
		-0.9536704421043396],
		"scale":[1.0,
		1.0,
		1.0],
		"mesh":0
	},
	{
		"name":"Null.1",
		"translation":[-12.88293743133545,
		2.1251542568206789,
		-0.3934990465641022],
		"rotation":[0.0,
		0.0,
		0.0,
		-1.0],
		"scale":[1.0,
		1.0,
		1.0],
		"children":[3,
		4,
		6]
	},
	{
		"name":"Cylinder.2",
		"translation":[-0.25201335549354555,
		16.37600326538086,
		-0.006147885229438543],
		"rotation":[-0.7071067690849304,
		0.0,
		0.0,
		-0.7071067690849304],
		"scale":[1.0,
		1.0,
		1.0],
		"mesh":1
	},
	{
		"name":"Null.3",
		"translation":[14.985957145690918,
		-9.589277267456055,
		-0.006147885229438543],
		"rotation":[0.0,
		0.0,
		0.0,
		-1.0],
		"scale":[1.0,
		1.0,
		1.0],
		"children":[5]
	},
	{
		"name":"Sweep.1",
		"translation":[28.67389488220215,
		43.57124328613281,
		1.3597060441970826],
		"rotation":[-0.008717370219528675,
		0.6238954663276672,
		0.050683099776506427,
		0.7798138856887817],
		"scale":[1.0,
		1.0,
		1.0],
		"mesh":2
	},
	{
		"name":"Null.1",
		"translation":[-14.733942985534668,
		-6.786725044250488,
		0.012295770458877087],
		"rotation":[0.0,
		0.0,
		0.0,
		-1.0],
		"scale":[1.0,
		1.0,
		1.0],
		"children":[7,
		8,
		9,
		10,
		11,
		12]
	},
	{
		"name":"Pyramid",
		"translation":[36.09225845336914,
		13.462297439575196,
		-0.018443655222654344],
		"rotation":[0.2945685088634491,
		1.4906936147450883e-17,
		-0.955630362033844,
		6.867033084500052e-17],
		"scale":[1.0,
		1.0,
		1.0],
		"mesh":3
	},
	{
		"name":"Platonic.1",
		"translation":[59.72996139526367,
		33.659812927246097,
		-0.018443655222654344],
		"rotation":[0.0,
		-0.5540630221366882,
		0.0,
		-0.8324747085571289],
		"scale":[1.0,
		1.0,
		1.0],
		"mesh":4
	},
	{
		"name":"Platonic",
		"translation":[21.55803108215332,
		24.497087478637697,
		-0.018443655222654344],
		"rotation":[0.0,
		-0.5540630221366882,
		0.0,
		-0.8324747085571289],
		"scale":[1.0,
		1.0,
		1.0],
		"mesh":5
	},
	{
		"name":"Tube",
		"translation":[34.820823669433597,
		53.66771697998047,
		0.0950850322842598],
		"rotation":[0.20639252662658692,
		-0.6763151288032532,
		-0.6763151288032532,
		0.20639252662658692],
		"scale":[1.0,
		1.0,
		1.0],
		"mesh":6
	},
	{
		"name":"Cube.1",
		"translation":[34.949161529541019,
		29.43142318725586,
		-0.32098424434661868],
		"rotation":[0.0,
		0.0,
		0.29188311100006106,
		0.9564539790153503],
		"scale":[1.0,
		1.0,
		1.0],
		"mesh":7
	},
	{
		"name":"Cube.2",
		"translation":[36.06774139404297,
		-3.761852502822876,
		-1.315232276916504],
		"rotation":[0.0,
		0.0,
		0.0,
		-1.0],
		"scale":[1.0,
		1.0,
		1.0],
		"mesh":8
	}],
	"asset":{
		"version":"2.0",
		"generator":"Created using the official Cinema 4D glTF Exporter 1.000x284978"
	},
	"scenes":[{
		"nodes":[0]
	}],
	"meshes":[{
		"name":"Extrude",
		"primitives":[{
			"attributes":{
				"POSITION":1,
				"NORMAL":2,
				"TEXCOORD_0":3
			},
			"indices":0
		}]
	},
	{
		"name":"Cylinder.2",
		"primitives":[{
			"attributes":{
				"POSITION":5,
				"NORMAL":6,
				"TEXCOORD_0":7
			},
			"indices":4
		}]
	},
	{
		"name":"Sweep.1",
		"primitives":[{
			"attributes":{
				"POSITION":9,
				"NORMAL":10,
				"TEXCOORD_0":11
			},
			"indices":8
		}]
	},
	{
		"name":"Pyramid",
		"primitives":[{
			"attributes":{
				"POSITION":13,
				"NORMAL":14,
				"TEXCOORD_0":15
			},
			"indices":12
		}]
	},
	{
		"name":"Platonic.1",
		"primitives":[{
			"attributes":{
				"POSITION":19,
				"NORMAL":20,
				"TEXCOORD_0":21
			},
			"indices":18
		}]
	},
	{
		"name":"Platonic",
		"primitives":[{
			"attributes":{
				"POSITION":23,
				"NORMAL":24,
				"TEXCOORD_0":25
			},
			"indices":22
		}]
	},
	{
		"name":"Tube",
		"primitives":[{
			"attributes":{
				"POSITION":27,
				"NORMAL":28,
				"TEXCOORD_0":29
			},
			"indices":26
		}]
	},
	{
		"name":"Cube.1",
		"primitives":[{
			"attributes":{
				"POSITION":31,
				"NORMAL":32,
				"TEXCOORD_0":33
			},
			"indices":30
		}]
	},
	{
		"name":"Cube.2",
		"primitives":[{
			"attributes":{
				"POSITION":35,
				"NORMAL":36,
				"TEXCOORD_0":37
			},
			"indices":34
		}]
	}],
	"bufferViews":[{
		"buffer":0,
		"byteOffset":0,
		"byteLength":5928,
		"target":34963
	},
	{
		"buffer":0,
		"byteOffset":5928,
		"byteLength":33024,
		"target":34962,
		"byteStride":32
	},
	{
		"buffer":1,
		"byteOffset":0,
		"byteLength":960,
		"target":34963
	},
	{
		"buffer":1,
		"byteOffset":960,
		"byteLength":3808,
		"target":34962,
		"byteStride":32
	},
	{
		"buffer":2,
		"byteOffset":0,
		"byteLength":30240,
		"target":34963
	},
	{
		"buffer":2,
		"byteOffset":30240,
		"byteLength":84064,
		"target":34962,
		"byteStride":32
	},
	{
		"buffer":3,
		"byteOffset":0,
		"byteLength":36,
		"target":34963
	},
	{
		"buffer":3,
		"byteOffset":36,
		"byteLength":512,
		"target":34962,
		"byteStride":32
	},
	{
		"buffer":4,
		"byteOffset":0,
		"byteLength":100
	},
	{
		"buffer":5,
		"byteOffset":0,
		"byteLength":48,
		"target":34963
	},
	{
		"buffer":5,
		"byteOffset":48,
		"byteLength":768,
		"target":34962,
		"byteStride":32
	},
	{
		"buffer":6,
		"byteOffset":0,
		"byteLength":120,
		"target":34963
	},
	{
		"buffer":6,
		"byteOffset":120,
		"byteLength":1920,
		"target":34962,
		"byteStride":32
	},
	{
		"buffer":7,
		"byteOffset":0,
		"byteLength":2016,
		"target":34963
	},
	{
		"buffer":7,
		"byteOffset":2016,
		"byteLength":8256,
		"target":34962,
		"byteStride":32
	},
	{
		"buffer":8,
		"byteOffset":0,
		"byteLength":72,
		"target":34963
	},
	{
		"buffer":8,
		"byteOffset":72,
		"byteLength":768,
		"target":34962,
		"byteStride":32
	},
	{
		"buffer":9,
		"byteOffset":0,
		"byteLength":72,
		"target":34963
	},
	{
		"buffer":9,
		"byteOffset":72,
		"byteLength":768,
		"target":34962,
		"byteStride":32
	}],
	"buffers":[{
		"uri":"data:application/octet-stream;base64,",
		"byteLength":38952
	},
	{
		"uri":"data:application/octet-stream;base64,",
		"byteLength":4768
	},
	{
		"uri":"data:application/octet-stream;base64,",
		"byteLength":114304
	},
	{
		"uri":"data:application/octet-stream;base64,",
		"byteLength":548
	},
	{
		"uri":"data:application/octet-stream;base64,",
		"byteLength":100
	},
	{
		"uri":"data:application/octet-stream;base64,",
		"byteLength":816
	},
	{
		"uri":"data:application/octet-stream;base64,",
		"byteLength":2040
	},
	{
		"uri":"data:application/octet-stream;base64,",
		"byteLength":10272
	},
	{
		"uri":"data:application/octet-stream;base64,",
		"byteLength":840
	},
	{
		"uri":"data:application/octet-stream;base64,",
		"byteLength":840
	}],
	"animations":[{
		"samplers":[{
			"input":16,
			"interpolation":"LINEAR",
			"output":17
		}],
		"channels":[{
			"sampler":0,
			"target":{
				"node":7,
				"path":"rotation"
			}
		}]
	}]
}